<?xml version="1.0" standalone="no"?>
<!DOCTYPE svg PUBLIC "-//W3C//DTD SVG 20010904//EN"
 "http://www.w3.org/TR/2001/REC-SVG-20010904/DTD/svg10.dtd">
<svg version="1.0" xmlns="http://www.w3.org/2000/svg"
 width="256.000000pt" height="391.000000pt" viewBox="0 0 256.000000 391.000000"
 preserveAspectRatio="xMidYMid meet">

<g transform="translate(0.000000,391.000000) scale(0.100000,-0.100000)"
fill="#000000" stroke="none">
<path d="M807 3873 c-50 -6 -107 -77 -107 -133 0 -21 -7 -57 -15 -80 -16 -46
-21 -170 -6 -155 5 6 11 19 14 30 4 16 5 15 6 -5 1 -24 17 -50 30 -50 4 0 7
28 7 62 1 35 2 77 3 94 0 17 5 42 10 55 8 20 9 15 7 -23 -2 -28 1 -49 8 -51 7
-3 5 -11 -7 -24 -14 -16 -15 -22 -5 -31 28 -22 75 -18 83 8 10 33 -4 60 -30
60 -31 0 -40 32 -25 88 12 46 28 62 41 41 4 -8 21 -29 38 -47 34 -35 39 -57
17 -81 -8 -9 -17 -39 -19 -67 -2 -28 -8 -57 -12 -64 -5 -9 -4 -11 3 -6 19 12
14 -23 -8 -54 l-21 -29 36 6 c37 6 49 -9 18 -22 -17 -6 -17 -7 1 -21 16 -11
18 -18 8 -38 -7 -15 -7 -27 -1 -33 16 -16 17 -139 2 -135 -15 2 -17 -24 -3
-33 6 -3 24 -34 41 -68 16 -34 37 -69 46 -77 9 -9 7 1 -7 23 -33 56 -13 68 33
20 20 -21 45 -49 55 -62 19 -24 21 -24 76 -12 74 16 93 45 88 130 -2 21 -5 23
-38 17 -19 -4 -41 -9 -49 -12 -9 -4 -13 4 -11 31 1 25 -4 41 -16 49 -15 11
-53 84 -72 140 -5 16 -14 18 -52 13 l-47 -5 29 24 c16 13 32 23 36 24 14 0 35
89 34 147 -1 54 1 60 14 49 28 -24 40 -28 34 -12 -4 11 0 16 10 16 14 0 21
-17 18 -42 -1 -3 5 -9 13 -12 9 -3 15 1 15 9 0 8 4 15 9 15 15 0 23 52 10 64
-8 8 -9 5 -4 -13 5 -16 4 -21 -4 -17 -14 9 -15 46 -1 46 6 0 10 7 10 15 0 9
11 20 24 25 13 5 27 14 31 19 9 15 -18 14 -33 -1 -15 -15 -32 4 -32 38 0 12
-16 38 -35 58 -19 21 -35 41 -35 44 0 10 -58 40 -90 49 -33 8 -126 11 -173 6z
m81 -112 c3 -8 -1 -12 -9 -9 -7 2 -15 10 -17 17 -3 8 1 12 9 9 7 -2 15 -10 17
-17z m-174 -80 c-4 -17 -9 -30 -11 -27 -3 2 -2 19 2 36 9 41 17 33 9 -9z m254
-191 c-17 -38 -22 -38 -42 4 -22 47 -21 53 17 76 l32 20 3 -35 c2 -20 -3 -49
-10 -65z m-12 -97 c-10 -10 -19 5 -10 18 6 11 8 11 12 0 2 -7 1 -15 -2 -18z
m54 -249 c0 -8 -5 -12 -10 -9 -6 4 -8 11 -5 16 9 14 15 11 15 -7z"/>
<path d="M1124 3492 c-13 -10 -24 -34 -28 -59 -6 -39 -4 -43 14 -43 11 0 29
-9 41 -21 19 -19 118 -69 137 -69 4 0 7 20 7 45 -1 54 -28 94 -86 131 -56 35
-61 36 -85 16z"/>
<path d="M1263 3155 c0 -22 2 -30 4 -17 2 12 2 30 0 40 -3 9 -5 -1 -4 -23z"/>
<path d="M1190 3150 c0 -5 5 -10 10 -10 6 0 10 5 10 10 0 6 -4 10 -10 10 -5 0
-10 -4 -10 -10z"/>
<path d="M870 3093 c36 -66 33 -82 -5 -25 -31 48 -60 47 -71 -2 -6 -25 -8 -28
-13 -12 -6 14 -10 9 -20 -24 -7 -23 -14 -40 -17 -38 -2 3 3 28 12 57 21 72 16
81 -50 81 -52 0 -57 -2 -105 -49 -41 -40 -51 -56 -57 -97 -10 -71 -37 -159
-73 -237 -18 -40 -31 -86 -31 -108 l0 -39 58 -2 57 -2 -51 -3 c-50 -4 -51 -5
-65 -46 -7 -23 -23 -50 -34 -59 -34 -29 -1 -49 92 -58 43 -4 91 -13 106 -19
16 -6 55 -11 88 -11 58 0 60 1 53 23 l-6 22 24 -22 c30 -28 41 -29 33 -3 -6
18 -4 19 27 8 18 -6 37 -15 43 -19 16 -16 33 -10 28 10 -3 10 0 22 6 25 6 4
11 2 11 -4 0 -5 15 -19 33 -30 l32 -20 -30 -2 c-16 0 -36 -1 -44 0 -8 0 -24
-6 -35 -14 l-20 -14 20 0 c21 0 24 -9 25 -60 1 -14 6 -31 12 -38 8 -10 7 -16
-4 -23 -9 -6 -10 -12 -4 -16 15 -12 12 -36 -6 -54 -13 -13 -15 -33 -12 -97 4
-85 -4 -99 -31 -60 -9 12 -19 18 -23 14 -4 -4 -1 -13 8 -19 9 -7 14 -18 11
-25 -2 -7 0 -11 5 -10 4 2 19 -5 33 -15 13 -9 19 -17 12 -17 -10 0 -12 -10 -7
-36 7 -48 14 -57 30 -44 10 8 14 5 19 -14 3 -13 3 -33 -1 -43 -7 -22 -71 -83
-86 -83 -6 0 -8 -3 -5 -6 4 -3 16 0 28 6 45 24 43 2 -3 -28 -51 -32 -87 -87
-87 -132 l0 -25 18 30 c27 44 80 92 109 100 40 10 36 2 -15 -37 -41 -30 -50
-43 -60 -87 -13 -57 -14 -170 -3 -211 7 -24 8 -23 14 12 9 42 33 57 40 25 3
-12 2 -51 -2 -87 -6 -43 -4 -95 5 -154 7 -49 11 -93 8 -97 -2 -5 0 -16 5 -26
15 -29 42 -126 36 -131 -3 -3 -5 1 -5 8 0 7 -2 11 -5 8 -8 -7 6 -39 14 -34 17
11 32 -15 36 -63 2 -36 10 -60 24 -75 21 -23 20 -52 -2 -67 -18 -12 3 -128 30
-159 13 -16 26 -39 28 -52 19 -97 34 -116 103 -135 26 -6 50 -12 53 -13 5 0
15 74 37 260 4 30 12 55 17 55 17 0 17 -45 1 -70 -19 -29 -21 -41 -3 -28 6 6
24 13 40 15 25 5 27 3 27 -30 0 -30 -3 -34 -21 -29 -15 4 -23 0 -26 -13 -3
-10 -13 -20 -23 -23 -14 -4 -20 -18 -24 -58 -14 -132 -16 -226 -7 -249 9 -24
10 -24 11 10 1 47 13 66 29 46 7 -8 26 -18 42 -21 37 -8 45 -22 18 -30 l-21
-7 23 -16 c17 -12 47 -15 137 -14 102 2 118 4 135 22 27 30 37 117 37 323 l0
179 29 26 c16 15 39 34 52 43 24 17 24 17 5 38 -25 27 -2 27 25 0 l21 -21 31
30 c52 48 67 48 145 -2 38 -25 80 -57 93 -72 13 -14 33 -36 45 -48 11 -11 23
-29 27 -38 11 -31 70 -23 107 14 27 27 31 37 27 67 -7 52 -109 217 -131 213
-21 -4 -56 25 -56 45 0 31 -54 94 -98 114 -67 29 -136 7 -220 -71 -35 -32 -47
-36 -57 -20 -6 10 105 120 159 156 34 23 111 40 100 22 -4 -7 1 -8 16 -3 18 6
22 4 17 -8 -4 -11 5 -22 27 -35 19 -12 43 -39 56 -65 22 -43 24 -45 49 -34 14
6 27 12 29 13 2 1 -8 26 -21 55 -32 72 -74 102 -149 107 -79 6 -145 -28 -257
-129 -47 -43 -91 -79 -98 -79 -25 0 -22 20 9 66 23 34 32 58 31 84 -1 19 -2
72 -3 117 -1 79 -2 83 -23 83 -12 0 -29 5 -37 10 -11 7 -3 8 26 6 l41 -4 2 77
c1 43 8 109 16 147 8 38 15 96 15 128 0 42 5 65 18 79 12 13 19 42 22 96 l5
76 65 17 c36 9 82 16 103 17 33 1 37 4 37 29 0 15 -10 47 -22 72 -11 25 -24
51 -28 59 -17 38 -68 33 -223 -24 -36 -13 -39 -13 -68 16 -16 16 -33 29 -36
29 -4 0 -19 -11 -33 -25 -25 -24 -28 -25 -55 -11 -16 8 -33 12 -39 8 -6 -4 -2
-8 11 -10 14 -2 20 -8 16 -18 -4 -11 8 -14 63 -14 94 0 75 -9 -32 -14 -54 -3
-83 -2 -74 4 12 8 12 10 -3 16 -9 3 -24 4 -32 0 -8 -3 -15 -1 -15 4 0 11 89
70 106 70 24 0 114 31 114 40 0 4 -16 29 -35 54 -19 26 -35 51 -35 57 0 6 -21
37 -47 70 l-46 60 -26 -25 c-31 -29 -71 -46 -111 -46 -23 0 -27 4 -23 20 3 10
15 23 27 26 20 7 20 8 -4 15 l-25 7 24 1 c13 1 54 18 90 38 70 39 112 44 141
18 20 -18 82 -20 113 -4 12 6 34 22 48 35 24 23 28 24 82 13 l57 -12 45 42
c24 22 49 41 55 41 5 0 28 -7 50 -16 37 -15 45 -15 105 0 35 9 76 16 90 16 15
0 25 6 25 14 0 8 3 16 8 19 4 2 0 2 -8 -1 -8 -2 -55 -13 -105 -24 -84 -17 -93
-18 -132 -3 -24 9 -43 20 -43 24 0 4 20 20 44 35 54 34 61 50 33 70 -21 15
-21 15 6 6 37 -13 34 -14 42 18 3 15 16 35 28 45 l22 19 -27 -6 c-22 -5 -28
-2 -33 16 -3 13 -14 40 -23 61 -16 36 -19 38 -52 32 -106 -17 -136 -17 -149
-2 -10 13 -8 23 13 60 34 58 49 70 126 102 92 38 108 40 130 20 11 -10 22 -16
25 -13 5 4 -68 68 -78 68 -3 0 -7 -8 -10 -19 -2 -11 -20 -24 -43 -31 -111 -34
-123 -41 -145 -87 -12 -25 -28 -47 -35 -50 -8 -3 -30 4 -49 16 -20 12 -44 21
-54 21 -24 0 -59 -48 -99 -132 -17 -38 -35 -68 -39 -68 -16 0 -32 65 -26 107
7 54 -31 164 -71 204 -36 35 -82 53 -89 34 -3 -7 3 -52 14 -101 10 -48 19
-104 19 -123 0 -70 8 -81 54 -81 36 0 43 -4 55 -31 7 -16 11 -32 9 -34 -2 -2
-24 1 -48 6 -25 6 -59 9 -77 7 -20 -1 -39 4 -52 16 -23 21 -71 15 -71 -9 0
-16 -33 -37 -53 -34 -24 3 -38 -1 -32 -10 5 -9 -31 -27 -46 -23 -3 0 -37 -24
-75 -55 l-69 -56 68 68 c37 37 59 65 49 63 -11 -3 -28 -1 -38 5 -10 6 -30 13
-44 15 -32 4 -86 62 -95 102 -6 28 -5 30 24 30 21 0 31 5 31 16 0 9 5 12 11 8
7 -4 10 -1 7 7 -3 8 -11 13 -17 12 -6 -2 -11 1 -11 7 0 5 -12 16 -27 24 -22
11 -25 16 -12 21 13 5 9 18 -25 85 -23 44 -47 82 -53 84 -7 3 1 -20 17 -51z
m7 -155 c-7 -10 -15 -18 -20 -18 -12 0 -20 28 -13 45 4 13 9 13 25 3 15 -9 17
-15 8 -30z m876 -20 c9 -13 5 -22 -17 -45 -16 -15 -32 -38 -37 -50 -5 -13 -17
-23 -28 -23 -11 0 -22 -4 -25 -9 -3 -4 -18 -11 -33 -14 -16 -3 -35 -8 -44 -12
-23 -9 52 146 86 181 25 25 26 25 57 7 17 -10 36 -26 41 -35z m-794 9 c13 -16
5 -27 -20 -27 -21 0 -33 15 -24 30 9 14 31 12 44 -3z m-199 -157 c15 -79 27
-100 56 -100 25 0 26 -1 22 -57 l-3 -58 68 -9 c37 -5 67 -13 67 -18 0 -10
-103 -8 -110 3 -8 11 -91 23 -149 21 -37 -1 -63 4 -80 15 -15 10 -35 17 -46
16 -15 -1 -15 0 -3 3 10 3 19 20 23 47 9 62 25 97 44 97 16 0 71 101 71 131 0
26 31 -45 40 -91z m1067 85 c0 -8 -4 -12 -9 -9 -4 3 -8 9 -8 15 0 5 4 9 8 9 5
0 9 -7 9 -15z m-320 -167 c-3 -7 -5 -2 -5 12 0 14 2 19 5 13 2 -7 2 -19 0 -25z
m327 -127 c8 -12 -75 -44 -104 -39 -13 1 -25 8 -27 15 -3 7 3 10 14 7 10 -3
36 1 58 9 51 19 53 19 59 8z m-539 -41 c-3 -5 -14 -10 -23 -10 -15 0 -15 2 -2
10 20 13 33 13 25 0z m50 -200 c-3 -6 -20 -17 -36 -25 -22 -12 -29 -12 -27 -3
2 7 14 18 28 25 31 15 43 16 35 3z m-90 -330 c-3 -5 -18 -9 -33 -9 l-27 1 30
8 c17 4 31 8 33 9 2 0 0 -3 -3 -9z m-110 -26 c-27 -7 -57 -13 -65 -13 -21 1
70 27 95 27 11 0 -2 -6 -30 -14z m522 -104 c1 -9 -5 -17 -13 -17 -8 0 -21 8
-29 17 -14 15 -13 17 13 17 19 0 28 -6 29 -17z m53 1 c0 -26 -16 -35 -24 -15
-10 25 -7 34 9 34 8 0 15 -9 15 -19z m-339 -24 c-13 -13 -26 -3 -16 12 3 6 11
8 17 5 6 -4 6 -10 -1 -17z m39 -32 c-13 -16 -40 -20 -40 -7 0 14 12 22 33 22
16 0 17 -3 7 -15z m259 -158 c-2 -3 -15 10 -28 27 l-24 31 28 -27 c16 -15 27
-29 24 -31z m-32 -3 c-3 -3 -12 -4 -19 -1 -8 3 -5 6 6 6 11 1 17 -2 13 -5z
m-273 -371 c-40 -14 -118 -70 -134 -96 -17 -27 -20 -29 -20 -11 0 21 76 124
91 124 4 0 9 -7 11 -16 3 -14 6 -14 28 4 16 13 26 16 29 9 2 -6 0 -12 -5 -14z
m-99 -216 c-7 -34 -8 -35 -36 -25 -21 7 -27 14 -21 25 8 14 53 42 60 37 2 -1
0 -18 -3 -37z m749 -97 c14 -22 26 -42 26 -44 0 -7 -101 -43 -142 -50 -25 -5
-38 -3 -38 4 0 6 -4 9 -10 5 -5 -3 -7 -12 -4 -19 3 -8 -8 -18 -28 -26 -18 -7
-40 -19 -48 -26 -8 -7 -44 -29 -80 -49 -60 -34 -65 -35 -77 -19 -17 23 -17 28
7 49 22 20 26 55 8 73 -9 9 -8 15 8 27 30 23 63 29 104 16 64 -19 105 -14 124
14 15 22 100 84 117 85 4 0 18 -18 33 -40z m-753 -73 c-18 -18 -25 2 -10 30
14 26 14 26 17 4 2 -13 -1 -28 -7 -34z m789 -8 c0 -5 15 -16 34 -24 24 -10 43
-31 66 -71 17 -31 29 -59 26 -62 -3 -3 -6 -1 -6 5 0 17 -105 93 -127 93 -11 0
-33 10 -48 22 l-27 21 28 13 c37 16 54 17 54 3z m-819 -32 c-10 -9 -11 -8 -5
6 3 10 9 15 12 12 3 -3 0 -11 -7 -18z m-1 -89 c13 -12 21 -13 28 -6 8 8 11 5
9 -11 -1 -11 -4 -21 -7 -22 -3 0 -13 -2 -23 -4 -21 -4 -37 24 -36 62 0 16 3
21 6 13 3 -8 14 -23 23 -32z m55 -462 c7 -20 11 -46 8 -57 -5 -18 -48 -37 -60
-26 -3 3 -2 33 2 65 8 71 30 78 50 18z"/>
<path d="M1240 2916 c0 -7 7 -13 15 -13 8 0 15 4 15 8 0 4 -7 9 -15 13 -9 3
-15 0 -15 -8z"/>
<path d="M1128 2908 c-17 -6 -28 -17 -28 -28 0 -25 20 -36 31 -19 7 12 9 11 9
-1 1 -11 4 -10 15 4 8 11 15 15 15 9 0 -6 11 -8 25 -5 14 2 25 8 25 12 0 5 3
17 7 27 6 16 5 16 -10 4 -11 -9 -17 -10 -17 -2 0 13 -35 13 -72 -1z m62 -14
c0 -8 -4 -12 -10 -9 -5 3 -10 10 -10 16 0 5 5 9 10 9 6 0 10 -7 10 -16z"/>
<path d="M1060 2890 c0 -6 10 -21 21 -33 18 -18 21 -19 15 -4 -3 10 -6 25 -6
33 0 8 -7 14 -15 14 -8 0 -15 -5 -15 -10z"/>
<path d="M1168 2786 l-4 -34 33 16 c40 19 41 25 8 40 -34 16 -32 17 -37 -22z"/>
<path d="M1617 2150 c3 -11 7 -20 9 -20 2 0 4 9 4 20 0 11 -4 20 -9 20 -5 0
-7 -9 -4 -20z"/>
<path d="M780 1660 c0 -11 2 -20 4 -20 2 0 6 9 9 20 3 11 1 20 -4 20 -5 0 -9
-9 -9 -20z"/>
<path d="M808 1565 c-3 -6 -8 -26 -12 -45 l-6 -35 16 34 c14 30 16 68 2 46z"/>
<path d="M801 1384 c0 -11 3 -14 6 -6 3 7 2 16 -1 19 -3 4 -6 -2 -5 -13z"/>
</g>
</svg>
