<svg version="1.1" id="Layer_1" xmlns="http://www.w3.org/2000/svg" xmlns:xlink="http://www.w3.org/1999/xlink" x="0px" y="0px"
	 width="100%" viewBox="0 0 527 159" enable-background="new 0 0 527 159" xml:space="preserve">
<path fill="#424242" opacity="1.000000" stroke="none" 
	d="
M1.000000,156.000000 
	C1.000000,111.312439 1.000000,66.624878 1.468657,21.468658 
	C154.409683,21.000063 306.882050,20.999424 459.354401,21.002558 
	C465.977264,21.002693 465.995758,21.018845 465.996704,27.479820 
	C466.002777,67.805840 466.000885,108.131866 465.999146,148.457886 
	C465.998810,155.993912 465.993591,155.999176 458.417084,155.999222 
	C305.944733,156.000259 153.472366,156.000000 1.000000,156.000000 
z"/>
<path fill="#000000" opacity="1.000000" stroke="none" 
	d="
M1.000000,156.500000 
	C153.472366,156.000000 305.944733,156.000259 458.417084,155.999222 
	C465.993591,155.999176 465.998810,155.993912 465.999146,148.457886 
	C466.000885,108.131866 466.002777,67.805840 465.996704,27.479820 
	C465.995758,21.018845 465.977264,21.002693 459.354401,21.002558 
	C306.882050,20.999424 154.409683,21.000063 1.468657,21.000000 
	C1.000000,14.339265 1.000000,7.678530 1.000000,1.000000 
	C158.020889,1.000000 315.041779,1.000000 472.884155,1.320821 
	C473.136810,3.118753 472.109955,4.586278 472.078796,6.074649 
	C471.946869,12.378935 472.110748,18.689413 472.095276,25.455349 
	C472.071198,29.942188 472.118378,33.971310 472.095032,38.460419 
	C472.071869,43.280170 472.119202,47.639931 472.096130,52.453247 
	C472.072693,56.270737 472.119690,59.634682 472.096313,63.431999 
	C472.072754,65.910278 472.119476,67.955185 472.096100,70.445663 
	C472.072876,73.593880 472.119751,76.296501 472.096710,79.423553 
	C472.073303,81.565048 472.119843,83.282120 472.096527,85.436974 
	C472.026672,88.172768 472.026672,90.470772 472.026672,92.816635 
	C478.226471,92.010071 478.950958,91.507721 482.410400,85.916077 
	C484.514679,83.535316 486.314606,81.288963 488.420471,78.907021 
	C491.220184,76.860390 493.713928,74.949348 495.582611,73.517303 
	C496.254852,74.642273 497.569061,76.841522 498.811615,79.384964 
	C498.882263,82.152565 499.024597,84.575958 499.204407,87.345314 
	C503.477539,91.162132 507.713196,94.632988 512.111572,98.408882 
	C517.022095,102.173820 521.568604,106.596970 528.000000,102.000000 
	C528.000000,121.256821 528.000000,140.513641 528.000000,160.000000 
	C510.646454,160.000000 493.291870,160.000000 475.467407,159.541016 
	C474.457703,152.643051 474.798492,146.835815 480.878540,142.368530 
	C485.058350,139.297394 488.217743,134.837433 492.027283,130.669189 
	C496.569519,126.440132 496.198730,122.509506 491.018250,117.536758 
	C488.364563,113.441292 485.739594,109.699478 482.968567,105.644730 
	C479.969025,101.744232 477.115540,98.156685 474.262024,94.569145 
	C473.563538,94.767822 472.865051,94.966499 472.166565,95.165176 
	C472.166565,99.110008 472.166565,103.054832 472.096558,107.455811 
	C472.073242,111.607918 472.119965,115.303871 472.096924,119.455994 
	C472.073669,123.607964 472.120148,127.303772 472.096741,131.463654 
	C472.017914,141.285141 472.008972,150.642578 472.000000,160.000000 
	C315.000000,160.000000 158.000000,160.000000 1.000000,159.998383 
	C1.000000,158.997849 1.000000,157.998932 1.000000,156.500000 
z"/>
<path fill="#000000" opacity="1.000000" stroke="none" 
	d="
M475.000000,1.000000 
	C492.613922,1.000000 510.227875,1.000000 528.000000,1.000000 
	C528.000000,32.020729 528.000000,63.041706 527.764648,94.886269 
	C527.034241,95.435883 526.539185,95.161903 525.902649,94.577026 
	C521.877441,91.495445 517.993835,88.724770 513.953857,85.629517 
	C511.236420,83.189178 508.675323,81.073433 506.067444,78.563705 
	C505.958313,75.446495 505.896027,72.723259 505.893677,69.616783 
	C505.246857,66.821922 504.540070,64.410316 503.795105,61.652794 
	C499.519470,57.833839 495.282013,54.360798 490.903412,50.576385 
	C485.452972,46.176826 480.143677,42.088634 474.904114,37.542595 
	C474.927032,33.055729 474.880219,29.026705 474.902832,24.533737 
	C474.981476,16.379862 474.990723,8.689931 475.000000,1.000000 
M498.203857,51.679180 
	C512.736145,53.597042 520.382080,42.584538 517.744629,30.604963 
	C516.114563,23.201118 507.680054,18.280519 499.305969,19.000404 
	C492.489349,19.586401 484.896179,27.773930 485.184235,35.293186 
	C485.402710,40.996075 489.222351,49.492210 498.203857,51.679180 
z"/>
<path fill="#0036FF" opacity="1.000000" stroke="none" 
	d="
M491.833221,130.998230 
	C488.217743,134.837433 485.058350,139.297394 480.878540,142.368530 
	C474.798492,146.835815 474.457703,152.643051 474.998779,159.541016 
	C474.250000,160.000000 473.500000,160.000000 472.375000,160.000000 
	C472.008972,150.642578 472.017914,141.285141 472.554443,131.463791 
	C479.332428,130.999329 485.582825,130.998779 491.833221,130.998230 
z"/>
<path fill="#0044FF" opacity="1.000000" stroke="none" 
	d="
M526.044189,94.887924 
	C526.539185,95.161903 527.034241,95.435883 527.764648,95.354927 
	C528.000000,97.041664 528.000000,99.083336 528.000000,101.562500 
	C521.568604,106.596970 517.022095,102.173820 512.462341,98.193726 
	C514.393738,97.448959 516.163757,97.346176 517.874390,96.971985 
	C520.618347,96.371758 523.322937,95.591873 526.044189,94.887924 
z"/>
<path fill="#0064FF" opacity="1.000000" stroke="none" 
	d="
M474.666687,1.000000 
	C474.990723,8.689931 474.981476,16.379862 474.569458,24.534115 
	C473.499969,24.998169 472.833282,24.997898 472.166565,24.997629 
	C472.110748,18.689413 471.946869,12.378935 472.078796,6.074649 
	C472.109955,4.586278 473.136810,3.118753 473.352844,1.320821 
	C473.444458,1.000000 473.888885,1.000000 474.666687,1.000000 
z"/>
<path fill="#0054FF" opacity="1.000000" stroke="none" 
	d="
M491.044556,50.887756 
	C495.282013,54.360798 499.519470,57.833839 503.337128,61.653053 
	C492.667114,62.332355 482.416901,62.665489 472.166656,62.998627 
	C472.119690,59.634682 472.072693,56.270737 472.553711,52.453320 
	C479.069336,51.629147 485.056946,51.258453 491.044556,50.887756 
z"/>
<path fill="#004DFF" opacity="1.000000" stroke="none" 
	d="
M505.833710,70.000031 
	C505.896027,72.723259 505.958313,75.446495 505.615479,78.571762 
	C503.101349,78.996132 500.992310,79.018456 498.883301,79.040771 
	C497.569061,76.841522 496.254852,74.642273 495.582611,73.517303 
	C493.713928,74.949348 491.220184,76.860390 487.979736,78.897957 
	C482.210907,79.016029 477.188782,79.007584 472.166656,78.999130 
	C472.119751,76.296501 472.072876,73.593880 472.554199,70.445724 
	C483.999481,70.000145 494.916595,70.000092 505.833710,70.000031 
z"/>
<path fill="#003BFF" opacity="1.000000" stroke="none" 
	d="
M492.027283,130.669189 
	C485.582825,130.998779 479.332428,130.999329 472.624329,130.999725 
	C472.120148,127.303772 472.073669,123.607964 472.554504,119.456047 
	C479.070221,118.630089 485.058563,118.260254 491.046936,117.890411 
	C496.198730,122.509506 496.569519,126.440132 492.027283,130.669189 
z"/>
<path fill="#0050FF" opacity="1.000000" stroke="none" 
	d="
M505.893677,69.616783 
	C494.916595,70.000092 483.999481,70.000145 472.624268,70.000137 
	C472.119476,67.955185 472.072754,65.910278 472.096313,63.432003 
	C482.416901,62.665489 492.667114,62.332355 503.375305,61.998962 
	C504.540070,64.410316 505.246857,66.821922 505.893677,69.616783 
z"/>
<path fill="#003EFF" opacity="1.000000" stroke="none" 
	d="
M491.018250,117.536758 
	C485.058563,118.260254 479.070221,118.630089 472.624268,118.999878 
	C472.119965,115.303871 472.073242,111.607918 472.530731,107.455872 
	C476.394836,106.652412 479.754700,106.305046 483.114594,105.957672 
	C485.739594,109.699478 488.364563,113.441292 491.018250,117.536758 
z"/>
<path fill="#0047FF" opacity="1.000000" stroke="none" 
	d="
M525.902649,94.577019 
	C523.322937,95.591873 520.618347,96.371758 517.874390,96.971985 
	C516.163757,97.346176 514.393738,97.448959 512.299622,97.888687 
	C507.713196,94.632988 503.477539,91.162132 499.630005,87.345367 
	C504.715485,86.651016 509.412811,86.302559 514.110168,85.954102 
	C517.993835,88.724770 521.877441,91.495445 525.902649,94.577019 
z"/>
<path fill="#0058FF" opacity="1.000000" stroke="none" 
	d="
M490.903412,50.576389 
	C485.056946,51.258453 479.069336,51.629147 472.624115,51.999771 
	C472.119202,47.639931 472.071869,43.280170 472.428650,38.460400 
	C473.499969,38.000408 474.167206,38.000420 474.834412,38.000435 
	C480.143677,42.088634 485.452972,46.176826 490.903412,50.576389 
z"/>
<path fill="#004BFF" opacity="1.000000" stroke="none" 
	d="
M472.096710,79.423561 
	C477.188782,79.007584 482.210907,79.016029 487.673767,79.033546 
	C486.314606,81.288963 484.514679,83.535316 482.030609,85.762238 
	C478.286407,85.494942 475.226410,85.247063 472.166382,84.999184 
	C472.119843,83.282120 472.073303,81.565048 472.096710,79.423561 
z"/>
<path fill="#004BFF" opacity="1.000000" stroke="none" 
	d="
M513.953857,85.629517 
	C509.412811,86.302559 504.715485,86.651016 499.592529,86.999420 
	C499.024597,84.575958 498.882263,82.152565 498.811584,79.384972 
	C500.992310,79.018456 503.101349,78.996132 505.662323,78.965744 
	C508.675323,81.073433 511.236420,83.189178 513.953857,85.629517 
z"/>
<path fill="#0044FF" opacity="1.000000" stroke="none" 
	d="
M482.968567,105.644730 
	C479.754700,106.305046 476.394836,106.652412 472.600769,106.999725 
	C472.166565,103.054832 472.166565,99.110008 472.166565,95.165176 
	C472.865051,94.966499 473.563538,94.767822 474.262024,94.569145 
	C477.115540,98.156685 479.969025,101.744232 482.968567,105.644730 
z"/>
<path fill="#0047FF" opacity="1.000000" stroke="none" 
	d="
M472.096527,85.436974 
	C475.226410,85.247063 478.286407,85.494942 481.726196,85.896652 
	C478.950958,91.507721 478.226471,92.010071 472.026672,92.816635 
	C472.026672,90.470772 472.026672,88.172768 472.096527,85.436974 
z"/>
<path fill="#005CFF" opacity="1.000000" stroke="none" 
	d="
M474.904114,37.542591 
	C474.167206,38.000420 473.499969,38.000408 472.499146,38.000412 
	C472.118378,33.971310 472.071198,29.942188 472.095276,25.455349 
	C472.833282,24.997898 473.499969,24.998169 474.500061,24.998060 
	C474.880219,29.026705 474.927032,33.055729 474.904114,37.542591 
z"/>
<path fill="#005CFF" opacity="1.000000" stroke="none" 
	d="
M497.890686,51.410961 
	C489.222351,49.492210 485.402710,40.996075 485.184235,35.293186 
	C484.896179,27.773930 492.489349,19.586401 499.305969,19.000404 
	C507.680054,18.280519 516.114563,23.201118 517.744629,30.604963 
	C520.382080,42.584538 512.736145,53.597042 497.890686,51.410961 
z"/>
</svg>