<svg id="svg" version="1.1" xmlns="http://www.w3.org/2000/svg" xmlns:xlink="http://www.w3.org/1999/xlink" width="400" height="120.6831119544592" viewBox="0, 0, 400,120.6831119544592"><g id="svgg"><path id="path0" d="M321.208 30.175 C 321.002 30.256,320.833 30.419,320.833 30.536 C 320.833 30.694,320.515 30.741,319.625 30.715 C 318.287 30.677,317.609 30.772,317.737 30.980 C 317.879 31.209,317.130 31.491,316.250 31.538 C 315.529 31.577,315.409 31.634,315.363 31.958 C 315.313 32.315,314.676 32.467,313.721 32.349 C 313.613 32.335,313.416 32.480,313.282 32.671 C 313.149 32.862,312.881 33.030,312.687 33.044 C 312.494 33.059,312.343 33.149,312.354 33.244 C 312.409 33.749,312.299 33.833,311.583 33.833 C 311.171 33.833,310.842 33.890,310.853 33.958 C 310.909 34.313,310.794 34.474,310.418 34.568 C 310.189 34.626,310.010 34.727,310.021 34.795 C 310.078 35.169,309.942 35.307,309.419 35.405 C 308.945 35.494,308.325 36.075,308.472 36.292 C 308.487 36.315,308.499 36.390,308.497 36.458 C 308.496 36.527,308.429 36.480,308.349 36.354 C 308.182 36.089,307.833 36.243,307.833 36.582 C 307.833 36.708,307.689 36.857,307.512 36.913 C 307.329 36.971,307.142 37.232,307.080 37.516 C 307.019 37.791,306.827 38.105,306.652 38.215 C 306.477 38.324,306.333 38.583,306.333 38.790 C 306.333 39.081,306.238 39.167,305.917 39.167 C 305.586 39.167,305.500 39.251,305.500 39.573 C 305.500 39.797,305.424 40.027,305.331 40.085 C 305.238 40.142,305.049 40.458,304.912 40.786 C 304.775 41.114,304.538 41.474,304.385 41.586 C 304.197 41.723,304.084 42.113,304.035 42.801 C 303.986 43.474,303.881 43.843,303.722 43.904 C 303.589 43.955,303.528 43.923,303.585 43.831 C 303.641 43.741,303.613 43.667,303.523 43.667 C 303.325 43.667,303.172 44.400,303.227 45.083 C 303.295 45.928,303.099 46.750,302.831 46.750 C 302.623 46.750,302.576 47.225,302.538 49.706 L 302.492 52.663 311.163 52.659 C 316.969 52.657,319.833 52.599,319.833 52.484 C 319.833 52.391,319.751 52.365,319.649 52.427 C 319.548 52.490,319.590 52.351,319.742 52.119 C 319.950 51.801,320.007 51.395,319.970 50.477 C 319.925 49.347,319.950 49.243,320.305 49.066 C 320.515 48.961,320.675 48.826,320.659 48.766 C 320.570 48.427,320.827 48.008,321.068 48.100 C 321.254 48.172,321.333 48.107,321.333 47.884 C 321.333 47.466,321.644 47.169,321.956 47.288 C 322.146 47.361,322.179 47.301,322.094 47.035 C 321.994 46.718,322.057 46.681,322.783 46.634 C 323.495 46.589,323.582 46.541,323.570 46.203 C 323.556 45.826,323.568 45.824,325.570 45.870 C 327.551 45.916,327.582 45.923,327.531 46.292 C 327.486 46.615,327.555 46.667,328.031 46.672 C 328.589 46.677,329.321 47.081,329.167 47.299 C 329.121 47.364,329.252 47.441,329.458 47.470 C 329.828 47.522,329.911 47.761,329.845 48.583 C 329.823 48.860,329.847 48.875,329.990 48.667 C 330.139 48.449,330.162 48.453,330.164 48.694 C 330.166 48.847,330.252 49.001,330.356 49.035 C 330.479 49.076,330.541 49.594,330.533 50.508 C 330.512 52.979,330.537 52.833,330.125 52.836 C 329.822 52.838,329.798 52.869,330.000 53.000 C 330.167 53.108,330.181 53.162,330.042 53.164 C 329.915 53.166,329.833 53.396,329.833 53.750 C 329.833 54.261,329.782 54.333,329.417 54.333 C 329.188 54.333,329.009 54.390,329.020 54.458 C 329.100 54.967,328.978 55.182,328.667 55.083 C 328.392 54.996,328.333 55.053,328.333 55.405 C 328.333 55.751,328.253 55.833,327.917 55.833 C 327.611 55.833,327.500 55.922,327.500 56.167 C 327.500 56.389,327.389 56.500,327.167 56.500 C 326.983 56.500,326.842 56.556,326.853 56.625 C 326.931 57.117,326.798 57.333,326.417 57.333 C 326.187 57.333,326.009 57.390,326.020 57.458 C 326.098 57.952,325.964 58.111,325.469 58.111 C 325.110 58.111,324.861 58.228,324.699 58.472 C 324.567 58.671,324.327 58.833,324.164 58.833 C 323.989 58.833,323.827 59.002,323.765 59.250 C 323.697 59.519,323.543 59.667,323.330 59.667 C 323.144 59.667,323.000 59.779,323.000 59.924 C 323.000 60.065,322.845 60.346,322.656 60.549 C 322.338 60.890,322.321 60.892,322.431 60.583 C 322.513 60.353,322.495 60.302,322.374 60.417 C 322.278 60.508,322.170 60.733,322.135 60.917 C 322.096 61.122,321.962 61.231,321.786 61.201 C 321.593 61.168,321.500 61.263,321.500 61.493 C 321.500 61.680,321.425 61.843,321.333 61.854 C 321.242 61.866,321.073 61.884,320.958 61.896 C 320.844 61.907,320.726 62.085,320.697 62.292 C 320.648 62.634,320.481 62.746,320.113 62.682 C 320.037 62.669,320.013 62.720,320.060 62.795 C 320.192 63.010,319.916 63.351,319.567 63.403 C 319.348 63.436,319.266 63.562,319.302 63.809 C 319.344 64.095,319.269 64.167,318.927 64.167 C 318.655 64.167,318.500 64.259,318.500 64.421 C 318.500 64.561,318.308 64.748,318.073 64.837 C 317.839 64.926,317.689 65.068,317.742 65.153 C 317.869 65.359,317.350 65.863,317.142 65.735 C 317.052 65.679,316.937 65.788,316.887 65.978 C 316.838 66.167,316.654 66.368,316.480 66.423 C 316.305 66.479,316.195 66.578,316.237 66.645 C 316.361 66.846,316.070 67.186,315.733 67.235 C 315.556 67.260,315.393 67.438,315.363 67.640 C 315.330 67.866,315.191 68.000,314.988 68.000 C 314.778 68.000,314.667 68.115,314.667 68.333 C 314.667 68.653,314.505 68.740,314.032 68.677 C 313.912 68.661,313.828 68.746,313.844 68.866 C 313.907 69.335,313.820 69.500,313.512 69.500 C 313.305 69.500,313.171 69.634,313.137 69.875 C 313.097 70.157,312.990 70.237,312.708 70.198 C 312.403 70.155,312.333 70.226,312.333 70.573 C 312.333 70.884,312.246 71.000,312.011 71.000 C 311.834 71.000,311.642 71.150,311.583 71.333 C 311.487 71.636,311.302 71.741,310.958 71.686 C 310.890 71.676,310.833 71.846,310.833 72.065 C 310.833 72.351,310.716 72.493,310.417 72.568 C 310.188 72.626,310.000 72.775,310.000 72.900 C 310.000 73.025,309.850 73.167,309.667 73.215 C 309.467 73.267,309.333 73.442,309.333 73.651 C 309.333 73.912,309.228 74.000,308.917 74.000 C 308.583 74.000,308.500 74.083,308.500 74.417 C 308.500 74.687,308.407 74.833,308.234 74.833 C 308.088 74.833,307.930 74.983,307.882 75.167 C 307.805 75.459,307.536 75.585,307.125 75.520 C 307.056 75.509,307.000 75.687,307.000 75.917 C 307.000 76.222,306.911 76.333,306.667 76.333 C 306.444 76.333,306.333 76.444,306.333 76.667 C 306.333 76.913,306.222 77.000,305.907 77.000 C 305.672 77.000,305.524 77.071,305.578 77.158 C 305.632 77.245,305.450 77.484,305.173 77.688 C 304.896 77.893,304.628 78.193,304.576 78.355 C 304.525 78.517,304.384 78.612,304.263 78.565 C 304.137 78.517,304.005 78.629,303.953 78.827 C 303.903 79.021,303.634 79.253,303.344 79.354 C 302.516 79.643,302.500 79.763,302.500 85.822 L 302.500 91.499 325.625 91.458 L 348.750 91.417 348.790 83.875 L 348.829 76.333 338.540 76.311 C 332.880 76.298,328.419 76.255,328.625 76.216 C 328.831 76.176,329.000 76.069,329.000 75.979 C 329.000 75.888,328.906 75.870,328.792 75.939 C 328.640 76.030,328.644 75.989,328.804 75.792 C 328.925 75.642,329.188 75.497,329.387 75.468 C 329.616 75.436,329.770 75.278,329.803 75.042 C 329.837 74.801,329.971 74.667,330.178 74.667 C 330.355 74.667,330.491 74.610,330.480 74.542 C 330.419 74.156,330.545 74.000,330.917 74.000 C 331.250 74.000,331.333 73.917,331.333 73.583 C 331.333 73.273,331.421 73.167,331.678 73.167 C 332.159 73.167,332.667 72.867,332.667 72.583 C 332.667 72.428,332.765 72.381,332.944 72.450 C 333.129 72.521,333.182 72.493,333.102 72.364 C 333.024 72.237,333.072 72.205,333.241 72.270 C 333.425 72.340,333.500 72.267,333.500 72.018 C 333.500 71.754,333.604 71.667,333.917 71.667 C 334.146 71.667,334.324 71.610,334.314 71.542 C 334.237 71.056,334.357 70.871,334.693 70.959 C 334.939 71.023,335.015 70.992,334.933 70.860 C 334.867 70.753,334.893 70.667,334.990 70.667 C 335.087 70.667,335.167 70.563,335.167 70.436 C 335.167 70.309,335.317 70.166,335.500 70.118 C 335.683 70.070,335.833 69.917,335.833 69.777 C 335.833 69.637,336.002 69.499,336.208 69.470 C 336.443 69.437,336.602 69.283,336.634 69.059 C 336.662 68.862,336.831 68.663,337.009 68.616 C 337.188 68.569,337.333 68.412,337.333 68.266 C 337.333 68.120,337.432 68.000,337.552 68.000 C 337.673 68.000,337.983 67.779,338.242 67.509 C 338.501 67.238,338.868 66.995,339.058 66.967 C 339.248 66.939,339.444 66.767,339.493 66.583 C 339.545 66.391,339.724 66.250,339.917 66.250 C 340.135 66.250,340.268 66.121,340.303 65.875 C 340.337 65.639,340.472 65.500,340.667 65.500 C 340.838 65.500,341.025 65.350,341.083 65.167 C 341.142 64.983,341.298 64.833,341.432 64.833 C 341.566 64.833,341.747 64.644,341.835 64.412 C 341.923 64.181,342.109 63.948,342.247 63.895 C 342.386 63.841,342.500 63.690,342.500 63.558 C 342.500 63.426,342.706 63.115,342.958 62.867 C 343.210 62.620,343.417 62.304,343.417 62.167 C 343.417 62.029,343.581 61.893,343.781 61.865 C 344.009 61.832,344.166 61.675,344.198 61.448 C 344.231 61.217,344.388 61.064,344.625 61.030 C 344.856 60.997,345.000 60.861,345.000 60.675 C 345.000 60.508,345.150 60.333,345.333 60.285 C 345.597 60.216,345.667 60.058,345.667 59.527 C 345.667 58.972,345.727 58.847,346.020 58.803 C 346.299 58.761,346.386 58.612,346.432 58.095 C 346.463 57.734,346.615 57.322,346.768 57.178 C 346.965 56.994,347.008 56.986,346.914 57.151 C 346.826 57.307,346.845 57.345,346.974 57.266 C 347.087 57.196,347.167 56.705,347.167 56.073 C 347.167 55.040,347.182 55.000,347.583 55.000 C 347.813 55.000,348.000 54.921,348.000 54.823 C 348.000 54.726,347.928 54.691,347.840 54.746 C 347.741 54.807,347.743 54.664,347.846 54.368 C 347.945 54.084,347.993 52.145,347.964 49.571 L 347.917 45.250 347.542 45.197 C 347.194 45.147,347.167 45.059,347.167 43.988 C 347.167 42.944,347.135 42.833,346.833 42.833 C 346.549 42.833,346.500 42.722,346.500 42.072 C 346.500 41.212,346.271 40.667,345.911 40.667 C 345.768 40.667,345.667 40.510,345.667 40.290 C 345.667 40.083,345.522 39.823,345.344 39.712 C 345.157 39.595,345.000 39.281,344.969 38.964 C 344.930 38.550,344.837 38.417,344.591 38.416 C 344.381 38.416,344.230 38.268,344.167 38.000 C 344.105 37.734,343.934 37.564,343.694 37.529 C 343.409 37.488,343.343 37.398,343.421 37.154 C 343.503 36.894,343.441 36.833,343.095 36.833 C 342.749 36.833,342.667 36.753,342.667 36.417 C 342.667 36.089,342.582 36.000,342.269 36.000 C 341.992 36.000,341.877 35.911,341.894 35.708 C 341.908 35.526,341.780 35.397,341.552 35.365 C 341.325 35.332,341.168 35.175,341.135 34.948 C 341.102 34.712,340.966 34.583,340.750 34.583 C 340.558 34.583,340.379 34.442,340.327 34.250 C 340.258 33.996,340.071 33.905,339.535 33.865 C 338.873 33.817,338.756 33.709,338.821 33.209 C 338.836 33.095,338.713 33.013,338.549 33.027 C 337.693 33.101,337.333 32.994,337.333 32.667 C 337.333 32.483,337.277 32.342,337.208 32.353 C 336.454 32.472,335.852 32.303,335.803 31.958 C 335.754 31.614,335.651 31.579,334.533 31.534 C 333.372 31.487,333.320 31.468,333.406 31.118 C 333.456 30.915,333.452 30.848,333.398 30.969 C 333.318 31.144,333.244 31.138,333.023 30.937 C 332.815 30.749,332.384 30.695,331.282 30.719 C 329.891 30.748,329.814 30.731,329.725 30.375 C 329.673 30.169,329.559 30.000,329.472 30.000 C 329.385 30.000,329.370 30.094,329.439 30.208 C 329.537 30.372,329.511 30.374,329.315 30.216 C 329.018 29.975,321.808 29.939,321.208 30.175 M66.790 31.687 C 66.631 31.777,66.500 31.959,66.500 32.092 C 66.500 32.312,64.427 32.476,63.110 32.359 C 62.928 32.343,62.767 32.468,62.715 32.666 C 62.645 32.935,62.488 33.000,61.915 33.000 C 61.372 33.000,61.108 33.099,60.809 33.414 C 60.528 33.710,60.238 33.828,59.788 33.830 C 59.289 33.833,59.122 33.915,58.979 34.230 C 58.861 34.489,58.697 34.600,58.505 34.550 C 58.203 34.471,57.920 34.903,58.093 35.182 C 58.144 35.265,57.853 35.333,57.446 35.333 C 56.846 35.333,56.689 35.396,56.618 35.667 C 56.570 35.850,56.420 36.000,56.284 36.000 C 56.148 36.000,55.989 36.188,55.932 36.417 C 55.855 36.721,55.716 36.833,55.413 36.833 C 55.120 36.833,55.000 36.924,55.000 37.147 C 55.000 37.321,54.851 37.500,54.667 37.548 C 54.467 37.600,54.333 37.776,54.333 37.984 C 54.333 38.296,54.084 38.425,53.625 38.353 C 53.556 38.342,53.500 38.512,53.500 38.731 C 53.500 38.988,53.382 39.159,53.167 39.215 C 52.983 39.263,52.833 39.422,52.833 39.568 C 52.833 39.741,52.686 39.833,52.409 39.833 C 52.167 39.833,51.997 39.923,52.012 40.042 C 52.073 40.506,51.984 40.667,51.667 40.667 C 51.464 40.667,51.333 40.778,51.333 40.950 C 51.333 41.170,51.378 41.189,51.533 41.033 C 51.643 40.923,51.803 40.833,51.889 40.833 C 51.975 40.833,51.843 40.992,51.596 41.187 C 51.349 41.381,51.186 41.642,51.234 41.768 C 51.330 42.020,50.781 42.391,50.589 42.202 C 50.523 42.137,50.484 42.196,50.504 42.333 C 50.639 43.282,50.497 43.801,50.125 43.720 C 49.824 43.654,49.799 43.673,50.000 43.816 C 50.216 43.971,50.210 43.995,49.958 43.997 C 49.713 44.000,49.667 44.160,49.667 45.000 C 49.667 45.949,49.590 46.093,49.125 46.020 C 49.056 46.009,49.000 47.074,49.000 48.388 C 49.000 50.719,48.990 50.784,48.583 51.167 L 48.167 51.558 48.173 61.737 C 48.180 72.557,48.200 72.996,48.689 73.124 C 48.978 73.200,49.172 75.807,49.007 77.387 C 48.988 77.569,49.111 77.727,49.313 77.780 C 49.600 77.855,49.659 78.026,49.701 78.892 C 49.745 79.810,49.789 79.922,50.125 79.970 C 50.449 80.016,50.500 80.123,50.500 80.762 C 50.500 81.389,50.550 81.500,50.833 81.500 C 51.017 81.500,51.175 81.594,51.184 81.708 C 51.194 81.823,51.219 82.029,51.239 82.167 C 51.260 82.304,51.289 82.548,51.305 82.708 C 51.321 82.869,51.448 83.000,51.587 83.000 C 51.727 83.000,51.913 83.188,52.000 83.417 C 52.097 83.672,52.289 83.833,52.496 83.833 C 52.742 83.833,52.833 83.943,52.833 84.236 C 52.833 84.800,52.998 85.167,53.250 85.167 C 53.368 85.167,53.513 85.362,53.573 85.601 C 53.655 85.929,53.761 86.014,54.008 85.950 C 54.187 85.903,54.292 85.932,54.240 86.016 C 54.189 86.099,54.226 86.167,54.323 86.167 C 54.421 86.167,54.500 86.273,54.500 86.403 C 54.500 86.534,54.714 86.687,54.976 86.745 C 55.239 86.802,55.550 87.033,55.671 87.258 C 55.791 87.483,56.027 87.667,56.195 87.667 C 56.385 87.667,56.500 87.788,56.500 87.989 C 56.500 88.217,56.635 88.327,56.958 88.364 C 57.288 88.402,57.417 88.510,57.417 88.750 C 57.417 89.030,57.545 89.092,58.217 89.134 C 58.940 89.181,59.006 89.219,58.907 89.530 C 58.838 89.749,58.861 89.836,58.971 89.768 C 59.066 89.709,59.191 89.737,59.248 89.831 C 59.306 89.924,59.565 90.000,59.824 90.000 C 60.154 90.000,60.320 90.099,60.382 90.333 C 60.452 90.602,60.609 90.667,61.194 90.667 C 61.749 90.667,61.971 90.748,62.137 91.014 C 62.264 91.218,62.456 91.322,62.602 91.266 C 62.739 91.213,62.809 91.238,62.758 91.321 C 62.706 91.404,63.159 91.475,63.771 91.479 C 64.677 91.486,64.918 91.547,65.107 91.817 C 65.445 92.299,75.432 92.274,75.394 91.792 C 75.374 91.543,75.532 91.497,76.477 91.481 C 78.038 91.454,78.089 91.444,78.032 91.180 C 77.988 90.976,78.021 90.976,78.269 91.180 C 78.530 91.394,78.548 91.380,78.461 91.042 C 78.370 90.690,78.920 90.531,79.851 90.639 C 79.907 90.645,80.044 90.478,80.157 90.268 C 80.307 89.989,80.469 89.906,80.758 89.961 C 81.154 90.036,81.667 89.689,81.667 89.345 C 81.667 89.247,81.959 89.167,82.316 89.167 C 82.951 89.167,83.301 88.852,83.074 88.485 C 83.022 88.402,83.154 88.333,83.367 88.333 C 83.579 88.333,83.847 88.183,83.961 88.000 C 84.076 87.817,84.313 87.667,84.488 87.667 C 85.027 87.667,85.333 87.479,85.333 87.149 C 85.333 86.943,85.451 86.833,85.671 86.833 C 85.878 86.833,86.070 86.672,86.167 86.415 C 86.255 86.186,86.411 86.017,86.515 86.040 C 86.619 86.064,86.735 85.900,86.773 85.677 C 86.857 85.177,86.878 85.155,87.314 85.122 C 87.572 85.103,87.641 85.016,87.572 84.798 C 87.498 84.565,87.570 84.500,87.905 84.500 C 88.203 84.500,88.333 84.411,88.331 84.208 C 88.329 83.959,88.305 83.953,88.167 84.167 C 88.078 84.304,88.004 84.332,88.003 84.229 C 88.001 84.125,88.112 83.947,88.250 83.833 C 88.388 83.719,88.500 83.531,88.500 83.416 C 88.500 83.300,88.650 83.166,88.833 83.118 C 89.033 83.066,89.167 82.891,89.167 82.682 C 89.167 82.439,89.273 82.333,89.518 82.333 C 89.762 82.333,89.840 82.257,89.773 82.083 C 89.720 81.946,89.750 81.833,89.839 81.833 C 89.927 81.833,90.000 81.608,90.000 81.333 C 90.000 80.944,90.074 80.833,90.333 80.833 C 90.621 80.833,90.667 80.722,90.667 80.019 C 90.667 79.329,90.721 79.191,91.022 79.113 C 91.283 79.044,91.354 78.929,91.288 78.676 C 91.238 78.487,91.266 78.375,91.349 78.426 C 91.432 78.477,91.488 78.384,91.473 78.218 C 91.351 76.809,91.516 75.535,91.831 75.452 C 92.290 75.332,92.363 48.333,91.905 48.333 C 91.763 48.333,91.693 48.408,91.750 48.500 C 91.807 48.592,91.783 48.667,91.698 48.667 C 91.613 48.667,91.531 48.085,91.514 47.375 C 91.470 45.452,91.407 45.129,91.013 44.811 C 90.745 44.593,90.651 44.325,90.639 43.743 C 90.629 43.244,90.573 43.047,90.481 43.192 C 90.370 43.366,90.338 43.351,90.336 43.125 C 90.334 42.965,90.268 42.833,90.188 42.833 C 90.055 42.833,89.762 41.910,89.808 41.635 C 89.818 41.572,89.678 41.473,89.497 41.416 C 89.315 41.358,89.167 41.166,89.167 40.989 C 89.167 40.812,89.110 40.676,89.042 40.686 C 88.623 40.752,88.354 40.641,88.433 40.434 C 88.482 40.306,88.339 40.025,88.115 39.809 C 87.891 39.593,87.661 39.215,87.604 38.969 C 87.546 38.723,87.349 38.475,87.166 38.417 C 86.983 38.358,86.833 38.202,86.833 38.068 C 86.833 37.934,86.656 37.758,86.439 37.675 C 86.223 37.593,86.003 37.416,85.952 37.282 C 85.901 37.149,85.572 36.971,85.222 36.888 C 84.751 36.777,84.584 36.652,84.584 36.411 C 84.583 36.171,84.483 36.094,84.208 36.123 C 83.909 36.155,83.833 36.079,83.833 35.748 C 83.833 35.422,83.748 35.333,83.436 35.333 C 83.181 35.333,83.008 35.216,82.953 35.005 C 82.892 34.772,82.669 34.644,82.187 34.567 C 81.812 34.507,81.411 34.341,81.295 34.197 C 81.130 33.993,81.129 33.964,81.292 34.061 C 81.406 34.130,81.500 34.107,81.500 34.010 C 81.500 33.912,81.170 33.833,80.762 33.833 C 80.123 33.833,80.016 33.783,79.970 33.458 C 79.922 33.124,79.800 33.074,78.833 33.000 C 78.019 32.937,77.750 32.855,77.750 32.667 C 77.750 32.462,77.411 32.408,75.886 32.370 C 74.104 32.325,74.019 32.306,73.969 31.953 C 73.911 31.545,67.470 31.307,66.790 31.687 M0.335 61.827 L 0.335 91.327 0.709 91.419 C 0.915 91.469,3.807 91.489,7.136 91.463 L 13.188 91.417 13.219 80.750 L 13.250 70.083 19.333 70.061 C 26.554 70.034,26.000 70.060,26.000 69.750 C 26.000 69.558,26.221 69.498,26.958 69.492 C 30.143 69.464,30.777 69.361,30.600 68.900 C 30.534 68.727,30.671 68.663,31.130 68.654 C 32.018 68.636,32.326 68.558,32.640 68.276 C 32.944 68.002,33.789 67.738,34.138 67.809 C 34.260 67.834,34.398 67.704,34.446 67.522 C 34.543 67.152,34.935 66.940,35.208 67.109 C 35.322 67.179,35.353 67.091,35.293 66.865 C 35.242 66.671,35.249 66.521,35.309 66.532 C 35.368 66.544,35.529 66.507,35.667 66.451 C 35.804 66.395,36.104 66.327,36.333 66.300 C 36.611 66.266,36.742 66.153,36.727 65.958 C 36.711 65.755,36.825 65.667,37.102 65.667 C 37.321 65.667,37.491 65.610,37.480 65.542 C 37.412 65.107,37.553 64.856,37.917 64.765 C 38.146 64.707,38.333 64.549,38.333 64.413 C 38.333 64.278,38.467 64.167,38.631 64.167 C 38.817 64.167,38.939 64.031,38.956 63.807 C 38.988 63.382,39.285 63.159,39.637 63.294 C 39.775 63.347,39.847 63.321,39.797 63.237 C 39.614 62.929,39.973 62.334,40.273 62.448 C 40.489 62.531,40.533 62.492,40.453 62.284 C 40.395 62.134,40.420 61.966,40.507 61.912 C 40.595 61.858,40.667 61.661,40.667 61.475 C 40.667 61.276,40.804 61.099,41.000 61.048 C 41.269 60.978,41.333 60.821,41.333 60.231 C 41.333 59.579,41.375 59.500,41.717 59.500 C 42.051 59.500,42.107 59.408,42.143 58.804 C 42.169 58.355,42.301 58.006,42.514 57.821 C 42.696 57.663,42.833 57.470,42.819 57.392 C 42.642 56.401,42.864 55.019,43.208 54.970 L 43.583 54.917 43.583 51.167 C 43.583 47.528,43.573 47.417,43.250 47.417 C 42.945 47.417,42.912 47.287,42.863 45.917 C 42.819 44.709,42.745 44.349,42.484 44.068 C 42.300 43.871,42.149 43.458,42.136 43.117 C 42.123 42.785,42.051 42.552,41.975 42.599 C 41.899 42.646,41.885 42.559,41.944 42.406 C 42.030 42.182,41.981 42.150,41.692 42.242 C 41.385 42.339,41.331 42.288,41.316 41.886 C 41.278 40.880,41.239 40.763,40.917 40.675 C 40.725 40.622,40.583 40.442,40.583 40.250 C 40.583 40.031,40.454 39.898,40.208 39.863 C 39.904 39.820,39.833 39.704,39.833 39.248 C 39.833 38.939,39.762 38.642,39.675 38.589 C 39.588 38.535,39.548 38.648,39.585 38.840 C 39.627 39.062,39.578 39.163,39.451 39.118 C 39.340 39.079,39.268 38.886,39.290 38.690 C 39.313 38.477,39.236 38.333,39.097 38.333 C 38.952 38.333,38.895 38.216,38.946 38.023 C 39.009 37.781,38.906 37.689,38.472 37.602 C 38.072 37.521,37.981 37.450,38.146 37.347 C 38.463 37.150,38.201 36.786,37.815 36.887 C 37.590 36.945,37.500 36.881,37.500 36.661 C 37.500 36.492,37.417 36.302,37.315 36.239 C 37.190 36.161,37.169 36.245,37.251 36.503 C 37.356 36.835,37.340 36.853,37.118 36.649 C 36.979 36.521,36.877 36.342,36.891 36.250 C 36.905 36.158,36.718 36.060,36.475 36.032 C 36.206 36.001,36.001 35.855,35.949 35.657 C 35.903 35.479,35.745 35.333,35.599 35.333 C 35.453 35.333,35.333 35.264,35.333 35.179 C 35.333 34.858,34.791 34.500,34.306 34.500 C 33.942 34.500,33.778 34.407,33.715 34.167 C 33.667 33.983,33.557 33.833,33.471 33.833 C 33.384 33.833,33.367 33.927,33.431 34.042 C 33.525 34.208,33.504 34.208,33.324 34.042 C 33.201 33.927,32.882 33.833,32.616 33.833 C 32.298 33.833,32.019 33.690,31.804 33.417 C 31.511 33.045,31.353 33.000,30.341 33.000 C 29.354 33.000,29.194 32.957,29.120 32.674 C 29.036 32.353,28.786 32.347,14.685 32.337 L 0.335 32.327 0.335 61.827 M102.167 61.917 L 102.167 91.500 108.320 91.500 C 111.704 91.500,114.591 91.454,114.736 91.399 C 114.973 91.308,115.000 90.147,115.000 79.982 L 115.000 68.667 118.417 68.667 L 121.833 68.667 121.853 69.208 C 121.864 69.506,121.859 69.851,121.842 69.975 C 121.825 70.099,121.885 70.154,121.975 70.099 C 122.263 69.921,122.667 70.503,122.667 71.095 C 122.667 71.556,122.731 71.667,123.000 71.667 C 123.304 71.667,123.469 72.308,123.353 73.042 C 123.342 73.110,123.521 73.167,123.750 73.167 C 124.133 73.167,124.167 73.228,124.167 73.917 C 124.167 74.556,124.216 74.667,124.500 74.667 C 124.766 74.667,124.838 74.785,124.854 75.250 C 124.889 76.214,124.903 76.248,125.292 76.303 C 125.612 76.349,125.667 76.458,125.667 77.055 C 125.667 77.573,125.753 77.807,126.000 77.961 C 126.206 78.090,126.333 78.350,126.333 78.644 C 126.333 78.919,126.509 79.307,126.750 79.568 C 126.979 79.815,127.167 80.122,127.167 80.251 C 127.167 80.567,127.525 81.333,127.672 81.333 C 127.737 81.333,127.838 81.629,127.896 81.991 C 127.956 82.368,128.143 82.748,128.334 82.882 C 128.522 83.014,128.695 83.360,128.731 83.682 C 128.767 83.995,128.804 84.306,128.815 84.375 C 128.825 84.444,128.938 84.500,129.066 84.500 C 129.337 84.500,129.500 84.856,129.500 85.446 C 129.500 85.724,129.612 85.894,129.833 85.952 C 130.084 86.017,130.167 86.179,130.167 86.603 C 130.167 86.913,130.242 87.167,130.333 87.167 C 130.425 87.167,130.500 87.086,130.500 86.988 C 130.500 86.890,130.612 86.922,130.750 87.060 C 131.032 87.342,131.086 87.573,130.833 87.417 C 130.742 87.360,130.667 87.393,130.667 87.490 C 130.667 87.587,130.742 87.667,130.833 87.667 C 130.925 87.667,131.000 87.974,131.000 88.349 C 131.000 88.891,131.068 89.049,131.333 89.118 C 131.576 89.182,131.667 89.347,131.669 89.728 C 131.672 90.360,131.866 90.702,132.182 90.634 C 132.330 90.602,132.436 90.752,132.469 91.042 L 132.522 91.500 139.553 91.498 C 144.872 91.496,146.685 91.444,147.000 91.285 C 147.539 91.013,147.633 90.417,147.177 90.172 C 146.949 90.050,146.833 89.823,146.833 89.494 C 146.833 89.222,146.683 88.850,146.500 88.667 C 146.317 88.483,146.167 88.232,146.167 88.108 C 146.167 87.984,145.979 87.680,145.750 87.432 C 145.521 87.185,145.333 86.830,145.333 86.642 C 145.333 86.442,145.196 86.266,145.000 86.215 C 144.817 86.167,144.659 86.043,144.649 85.939 C 144.639 85.835,144.615 85.638,144.594 85.500 C 144.574 85.362,144.544 85.119,144.529 84.958 C 144.512 84.787,144.362 84.667,144.167 84.667 C 143.862 84.667,143.698 84.025,143.814 83.292 C 143.824 83.223,143.777 83.176,143.708 83.186 C 143.121 83.279,143.000 83.148,143.000 82.417 C 143.000 82.004,142.944 81.676,142.875 81.686 C 142.436 81.756,142.333 81.614,142.333 80.935 C 142.333 80.293,142.282 80.190,141.917 80.098 C 141.517 79.998,141.387 79.622,141.491 78.862 C 141.507 78.740,141.370 78.601,141.186 78.553 C 140.930 78.486,140.839 78.302,140.800 77.775 C 140.763 77.260,140.679 77.083,140.470 77.081 C 140.067 77.078,139.992 76.955,139.952 76.230 C 139.923 75.691,139.852 75.574,139.526 75.528 C 139.225 75.485,139.155 75.395,139.223 75.135 C 139.342 74.681,139.066 74.000,138.764 74.000 C 138.595 74.000,138.503 73.780,138.468 73.292 C 138.424 72.684,138.365 72.585,138.050 72.596 C 137.848 72.602,137.721 72.547,137.766 72.474 C 137.951 72.175,137.615 71.122,137.311 71.042 C 137.114 70.991,137.000 70.811,137.000 70.553 C 137.000 70.011,136.714 69.500,136.411 69.500 C 136.190 69.500,136.083 69.101,136.153 68.547 C 136.167 68.435,136.026 68.248,135.839 68.132 C 135.653 68.015,135.500 67.756,135.500 67.555 C 135.500 67.355,135.313 67.043,135.083 66.863 C 134.556 66.449,134.558 66.333,135.093 66.333 C 135.373 66.333,135.479 66.267,135.401 66.141 C 135.324 66.017,135.355 65.994,135.487 66.075 C 135.608 66.150,135.821 66.064,136.006 65.865 C 136.185 65.673,136.451 65.562,136.624 65.607 C 136.844 65.665,136.935 65.587,136.955 65.324 C 136.991 64.847,137.008 64.836,137.766 64.790 C 138.255 64.760,138.439 64.668,138.507 64.417 C 138.559 64.229,138.740 64.084,138.924 64.084 C 139.135 64.084,139.269 63.951,139.303 63.708 C 139.337 63.467,139.471 63.333,139.678 63.333 C 139.889 63.333,140.000 63.218,140.000 63.000 C 140.000 62.817,140.075 62.657,140.167 62.646 C 140.258 62.634,140.420 62.616,140.526 62.604 C 140.632 62.593,140.739 62.441,140.765 62.267 C 140.815 61.921,141.156 61.640,141.367 61.771 C 141.440 61.816,141.500 61.661,141.500 61.427 C 141.500 61.024,141.641 60.925,142.125 60.988 C 142.257 61.005,142.333 60.800,142.333 60.425 C 142.333 60.017,142.435 59.772,142.667 59.628 C 142.850 59.513,143.000 59.250,143.000 59.043 C 143.000 58.824,143.102 58.667,143.244 58.667 C 143.614 58.667,143.833 58.115,143.833 57.187 C 143.833 56.729,143.920 56.299,144.026 56.234 C 144.145 56.160,144.173 56.188,144.099 56.308 C 144.030 56.420,144.083 56.500,144.225 56.500 C 144.389 56.500,144.455 56.359,144.424 56.079 C 144.399 55.848,144.439 55.621,144.514 55.575 C 144.889 55.343,144.598 45.350,144.208 45.077 C 143.905 44.865,143.833 44.656,143.833 43.991 C 143.833 43.522,143.757 43.167,143.657 43.167 C 143.560 43.167,143.534 43.080,143.600 42.974 C 143.681 42.842,143.606 42.810,143.359 42.875 C 143.027 42.962,143.000 42.907,143.000 42.132 C 143.000 41.377,142.967 41.303,142.667 41.382 C 142.384 41.456,142.330 41.382,142.313 40.901 C 142.278 39.956,142.263 39.918,141.892 39.866 C 141.695 39.838,141.496 39.669,141.449 39.491 C 141.403 39.312,141.245 39.167,141.099 39.167 C 140.930 39.167,140.833 39.022,140.833 38.769 C 140.833 38.508,140.715 38.341,140.488 38.282 C 140.297 38.232,140.101 38.037,140.052 37.848 C 140.003 37.658,139.896 37.544,139.816 37.594 C 139.736 37.643,139.713 37.573,139.765 37.438 C 139.872 37.160,139.375 36.833,138.844 36.833 C 138.588 36.833,138.500 36.727,138.500 36.417 C 138.500 36.109,138.411 36.000,138.161 36.000 C 137.971 36.000,137.767 35.849,137.695 35.654 C 137.624 35.464,137.514 35.314,137.450 35.321 C 137.006 35.368,136.833 35.300,136.833 35.079 C 136.833 34.788,136.161 34.492,135.384 34.442 C 134.771 34.402,134.426 34.167,134.982 34.167 C 135.198 34.167,135.308 34.094,135.245 33.992 C 135.186 33.896,135.013 33.830,134.860 33.845 C 133.676 33.961,133.167 33.832,133.167 33.417 C 133.167 33.012,133.133 33.000,132.000 33.000 C 131.114 33.000,130.833 32.944,130.833 32.768 C 130.833 32.346,130.410 32.333,116.236 32.333 L 102.167 32.333 102.167 61.917 M149.167 37.993 L 149.167 43.654 156.697 43.663 C 160.839 43.668,164.251 43.696,164.280 43.724 C 164.308 43.752,164.333 54.514,164.334 67.638 L 164.338 91.500 170.752 91.500 L 177.167 91.500 177.167 67.583 L 177.167 43.667 184.752 43.667 L 192.338 43.667 192.294 38.042 L 192.250 32.417 170.708 32.374 L 149.167 32.332 149.167 37.993 M209.865 32.853 C 209.820 33.437,209.452 34.063,209.263 33.874 C 209.195 33.806,209.154 33.825,209.173 33.917 C 209.293 34.514,209.143 35.333,208.913 35.333 C 208.579 35.333,208.333 36.008,208.333 36.928 C 208.333 37.556,208.283 37.667,208.000 37.667 C 207.817 37.667,207.667 37.746,207.667 37.843 C 207.667 37.940,207.760 37.963,207.875 37.895 C 208.038 37.797,208.040 37.823,207.886 38.014 C 207.777 38.148,207.664 38.632,207.636 39.088 C 207.591 39.788,207.532 39.917,207.250 39.917 C 206.963 39.917,206.909 40.045,206.865 40.833 C 206.826 41.538,206.718 41.850,206.400 42.183 C 206.079 42.519,206.001 42.749,206.052 43.210 C 206.100 43.642,206.060 43.782,205.905 43.722 C 205.573 43.595,205.333 44.225,205.333 45.223 C 205.333 46.053,205.303 46.128,205.000 46.048 C 204.760 45.985,204.659 46.048,204.638 46.272 C 204.612 46.560,204.564 47.196,204.519 47.856 C 204.508 48.005,204.350 48.167,204.167 48.215 C 203.883 48.289,203.833 48.442,203.833 49.234 C 203.833 49.747,203.758 50.167,203.667 50.167 C 203.575 50.167,203.500 50.277,203.500 50.411 C 203.500 50.567,203.403 50.619,203.235 50.555 C 203.034 50.477,202.978 50.549,203.003 50.851 C 203.066 51.592,203.001 51.935,202.738 52.260 C 202.593 52.438,202.530 52.478,202.597 52.349 C 202.677 52.195,202.652 52.156,202.526 52.234 C 202.413 52.304,202.333 52.788,202.333 53.398 C 202.333 54.375,202.309 54.442,201.958 54.430 C 201.614 54.418,201.579 54.500,201.534 55.441 C 201.493 56.299,201.431 56.479,201.154 56.552 C 200.973 56.599,200.835 56.701,200.848 56.777 C 201.019 57.748,200.806 58.833,200.444 58.833 C 200.101 58.833,200.051 58.918,200.027 59.541 C 200.008 60.033,199.897 60.326,199.664 60.502 C 199.361 60.731,199.285 61.043,199.175 62.522 C 199.170 62.580,199.017 62.667,198.833 62.715 C 198.548 62.790,198.500 62.942,198.500 63.778 C 198.500 64.631,198.452 64.775,198.125 64.919 C 197.833 65.047,197.745 65.230,197.729 65.750 C 197.684 67.143,197.677 67.167,197.333 67.167 C 197.048 67.167,197.000 67.278,197.000 67.932 C 197.000 68.543,196.936 68.715,196.685 68.780 C 196.354 68.867,196.167 69.459,196.167 70.418 C 196.167 70.798,196.078 70.984,195.870 71.039 C 195.636 71.100,195.565 71.317,195.533 72.080 C 195.486 73.201,195.428 73.333,194.984 73.333 C 194.743 73.333,194.663 73.435,194.686 73.708 C 194.796 74.991,194.670 75.636,194.326 75.546 C 194.139 75.497,193.998 75.523,194.013 75.604 C 194.152 76.363,193.974 77.167,193.667 77.167 C 193.470 77.167,193.323 77.286,193.308 77.458 C 193.294 77.619,193.265 77.825,193.244 77.917 C 193.223 78.008,193.196 78.365,193.186 78.708 C 193.171 79.201,193.101 79.333,192.855 79.333 C 192.533 79.333,192.176 81.110,192.418 81.502 C 192.507 81.645,192.166 81.746,191.792 81.686 C 191.723 81.676,191.667 82.154,191.667 82.750 C 191.667 83.719,191.632 83.833,191.337 83.833 C 191.014 83.833,190.769 84.337,190.841 84.853 C 190.904 85.310,190.829 85.500,190.583 85.500 C 190.446 85.500,190.322 85.594,190.308 85.708 C 190.294 85.823,190.265 85.992,190.244 86.083 C 190.223 86.175,190.196 86.569,190.186 86.958 C 190.170 87.545,190.110 87.667,189.839 87.667 C 189.615 87.667,189.541 87.747,189.606 87.917 C 189.659 88.054,189.619 88.167,189.518 88.167 C 189.404 88.167,189.333 88.542,189.333 89.151 C 189.333 90.045,189.304 90.128,189.008 90.050 C 188.722 89.975,188.686 90.047,188.710 90.654 C 188.730 91.153,188.799 91.318,188.961 91.256 C 189.084 91.209,189.138 91.244,189.083 91.335 C 189.017 91.441,191.295 91.484,195.616 91.458 L 202.250 91.417 202.303 90.768 C 202.351 90.180,202.687 89.576,202.866 89.755 C 202.906 89.794,202.955 89.491,202.977 89.080 C 203.004 88.562,203.137 88.203,203.414 87.904 C 203.694 87.602,203.809 87.286,203.803 86.840 C 203.797 86.408,203.907 86.093,204.147 85.853 C 204.411 85.589,204.500 85.293,204.500 84.678 C 204.500 84.018,204.562 83.836,204.815 83.756 C 205.182 83.639,205.328 83.200,205.331 82.208 L 205.333 81.500 215.167 81.500 L 225.000 81.500 225.000 82.167 C 225.000 82.533,225.080 82.833,225.179 82.833 C 225.600 82.833,225.832 83.343,225.854 84.320 C 225.875 85.238,225.911 85.333,226.235 85.333 C 226.563 85.333,226.588 85.408,226.542 86.250 C 226.509 86.852,226.556 87.167,226.680 87.167 C 226.784 87.167,226.824 87.283,226.770 87.425 C 226.715 87.568,226.729 87.648,226.802 87.603 C 227.131 87.399,227.332 87.838,227.354 88.810 C 227.371 89.566,227.434 89.830,227.585 89.772 C 227.938 89.637,228.167 90.035,228.167 90.785 L 228.167 91.504 234.875 91.460 L 241.583 91.417 241.583 90.750 C 241.583 90.269,241.514 90.083,241.333 90.083 C 241.143 90.083,241.063 89.806,241.000 88.917 C 240.946 88.156,240.844 87.743,240.708 87.729 C 240.594 87.718,240.425 87.699,240.333 87.688 C 240.242 87.676,240.167 87.333,240.167 86.926 C 240.167 86.404,240.078 86.121,239.866 85.968 C 239.658 85.817,239.552 85.492,239.522 84.917 C 239.488 84.258,239.394 84.019,239.073 83.778 C 238.730 83.520,238.667 83.331,238.667 82.569 C 238.667 81.778,238.626 81.667,238.333 81.667 C 238.062 81.667,237.997 81.550,237.982 81.042 C 237.973 80.698,237.948 80.304,237.927 80.167 C 237.907 80.029,237.878 79.777,237.862 79.606 C 237.841 79.381,237.740 79.319,237.500 79.382 C 237.196 79.461,237.166 79.386,237.164 78.526 C 237.161 77.485,236.939 76.919,236.687 77.311 C 236.476 77.638,236.354 77.237,236.459 76.555 C 236.521 76.148,236.440 75.921,236.103 75.557 C 235.692 75.114,235.562 74.537,235.662 73.602 C 235.685 73.382,235.619 73.316,235.443 73.383 C 235.030 73.542,234.827 73.103,234.812 72.020 C 234.799 71.135,234.756 71.000,234.482 71.000 C 234.198 71.000,234.046 70.459,234.145 69.797 C 234.191 69.487,233.814 68.833,233.587 68.833 C 233.393 68.833,233.333 68.635,233.333 67.990 C 233.333 67.526,233.274 67.184,233.200 67.229 C 232.910 67.409,232.683 67.038,232.648 66.329 C 232.628 65.919,232.531 65.475,232.431 65.343 C 232.294 65.161,232.301 65.133,232.458 65.228 C 232.573 65.297,232.667 65.275,232.667 65.180 C 232.667 65.084,232.479 64.959,232.250 64.902 C 231.882 64.809,231.833 64.709,231.833 64.042 C 231.833 63.520,231.743 63.216,231.542 63.060 C 231.269 62.847,231.271 62.840,231.569 62.945 C 231.790 63.022,231.851 62.996,231.768 62.862 C 231.701 62.754,231.539 62.667,231.407 62.667 C 231.275 62.667,231.162 62.573,231.156 62.458 C 231.073 60.826,230.976 60.500,230.573 60.500 C 230.396 60.500,230.333 60.281,230.333 59.667 C 230.333 58.913,230.297 58.833,229.957 58.833 C 229.617 58.833,229.586 58.766,229.636 58.125 C 229.702 57.286,229.441 56.500,229.095 56.500 C 228.910 56.500,228.837 56.244,228.800 55.458 C 228.755 54.523,228.712 54.411,228.375 54.363 C 228.039 54.316,228.000 54.216,228.000 53.415 C 228.000 52.702,227.930 52.470,227.660 52.281 C 227.414 52.108,227.311 51.832,227.285 51.275 C 227.266 50.853,227.175 50.514,227.083 50.523 C 226.578 50.573,226.513 50.453,226.466 49.388 C 226.432 48.621,226.345 48.253,226.185 48.200 C 226.028 48.148,225.995 48.197,226.085 48.353 C 226.174 48.511,226.161 48.531,226.041 48.417 C 225.944 48.325,225.825 47.762,225.775 47.167 C 225.725 46.571,225.680 46.061,225.675 46.034 C 225.670 46.007,225.535 46.007,225.375 46.034 C 225.135 46.075,225.074 45.936,225.031 45.250 C 224.998 44.724,224.864 44.294,224.667 44.083 C 224.484 43.887,224.334 43.442,224.303 43.000 C 224.259 42.373,224.190 42.241,223.882 42.198 C 223.551 42.151,223.510 42.035,223.466 41.031 C 223.422 40.046,223.378 39.916,223.083 39.913 C 222.848 39.910,222.766 39.815,222.806 39.590 C 222.929 38.889,222.647 37.797,222.320 37.712 C 222.090 37.651,221.994 37.469,221.979 37.064 C 221.948 36.220,221.941 36.199,221.611 35.957 C 221.411 35.811,221.267 35.419,221.194 34.825 C 221.115 34.178,221.011 33.917,220.833 33.917 C 220.653 33.917,220.569 33.695,220.533 33.125 L 220.482 32.333 215.193 32.333 L 209.904 32.333 209.865 32.853 M247.208 32.471 C 247.042 32.577,247.008 38.595,247.041 62.010 L 247.083 91.417 266.792 91.460 L 286.500 91.504 286.500 85.825 C 286.500 82.082,286.443 80.182,286.333 80.250 C 286.242 80.307,286.167 80.292,286.167 80.218 C 286.167 80.144,280.279 80.105,273.083 80.133 L 260.000 80.182 260.000 56.258 L 260.000 32.333 253.708 32.336 C 250.248 32.337,247.323 32.398,247.208 32.471 M279.146 32.417 C 279.134 32.462,279.116 32.591,279.104 32.702 C 279.093 32.812,278.824 32.956,278.508 33.021 C 277.842 33.157,277.500 33.547,277.500 34.170 C 277.500 34.519,277.422 34.607,277.125 34.597 C 276.753 34.583,276.750 34.602,276.719 37.208 L 276.688 39.833 277.094 39.833 C 277.442 39.833,277.500 39.912,277.500 40.383 C 277.500 41.076,277.754 41.333,278.438 41.333 C 278.870 41.333,278.987 41.408,279.030 41.708 C 279.125 42.378,284.167 42.325,284.167 41.653 C 284.167 41.372,284.434 41.244,284.875 41.314 C 284.944 41.324,285.000 41.201,285.000 41.040 C 285.000 40.878,285.169 40.672,285.375 40.581 C 285.681 40.447,285.749 40.286,285.744 39.708 C 285.738 39.090,285.783 39.000,286.099 39.000 C 286.447 39.000,286.462 38.929,286.489 37.158 C 286.510 35.731,286.467 35.322,286.300 35.344 C 285.775 35.414,285.662 35.327,285.762 34.929 C 285.869 34.501,285.725 33.829,285.532 33.856 C 285.148 33.911,285.000 33.783,285.000 33.397 C 285.000 33.039,284.939 32.977,284.658 33.051 C 284.404 33.117,284.275 33.036,284.162 32.737 C 284.018 32.359,279.236 32.054,279.146 32.417 M284.333 37.167 C 284.333 37.505,284.251 37.667,284.078 37.667 C 283.938 37.667,283.755 37.835,283.672 38.042 C 283.548 38.349,283.519 38.279,283.511 37.653 C 283.499 36.811,283.575 36.667,284.028 36.667 C 284.256 36.667,284.333 36.793,284.333 37.167 M222.500 37.972 C 222.500 38.189,222.302 38.334,222.141 38.234 C 221.968 38.127,222.117 37.833,222.343 37.833 C 222.429 37.833,222.500 37.896,222.500 37.972 M73.657 43.991 C 73.846 44.179,74.179 44.333,74.397 44.333 C 74.652 44.333,74.825 44.451,74.880 44.662 C 74.941 44.895,75.165 45.022,75.650 45.100 C 76.168 45.183,76.333 45.285,76.333 45.521 C 76.333 45.722,76.452 45.833,76.667 45.833 C 76.965 45.833,77.094 46.101,77.016 46.554 C 77.002 46.630,77.069 46.644,77.163 46.586 C 77.256 46.528,77.333 46.600,77.333 46.745 C 77.333 46.891,77.446 47.054,77.583 47.106 C 77.729 47.162,77.833 47.412,77.833 47.702 C 77.833 48.076,77.896 48.178,78.081 48.107 C 78.402 47.984,78.609 48.427,78.577 49.167 C 78.543 49.926,78.760 50.500,79.079 50.500 C 79.348 50.500,79.417 52.616,79.340 58.471 C 79.310 60.759,79.323 60.862,79.654 60.949 C 80.166 61.082,80.167 62.584,79.656 62.718 C 79.324 62.804,79.312 62.907,79.342 65.362 C 79.423 72.018,79.366 73.286,78.978 73.387 C 78.717 73.456,78.646 73.571,78.712 73.823 C 78.762 74.012,78.728 74.167,78.639 74.167 C 78.549 74.167,78.488 74.373,78.505 74.625 C 78.554 75.368,78.519 75.456,78.125 75.564 C 77.812 75.650,77.791 75.694,78.000 75.831 C 78.167 75.941,78.181 75.996,78.042 75.997 C 77.914 75.999,77.833 76.231,77.833 76.594 C 77.833 77.114,77.787 77.181,77.458 77.135 C 77.177 77.096,77.070 77.177,77.030 77.458 C 76.981 77.801,76.913 77.853,76.542 77.823 C 76.473 77.818,76.376 77.987,76.326 78.198 C 76.269 78.437,76.112 78.583,75.909 78.583 C 75.698 78.583,75.565 78.716,75.530 78.958 C 75.479 79.321,75.216 79.417,74.473 79.345 C 74.321 79.330,74.148 79.396,74.088 79.492 C 74.029 79.588,74.063 79.667,74.163 79.667 C 74.290 79.667,74.287 79.731,74.152 79.875 C 74.045 79.990,73.610 80.088,73.187 80.093 C 72.192 80.105,71.943 80.186,71.797 80.542 C 71.599 81.024,69.572 80.959,69.166 80.458 C 68.900 80.129,68.709 80.083,67.598 80.083 C 66.437 80.083,66.334 80.056,66.333 79.744 C 66.333 79.521,66.216 79.395,65.992 79.379 C 65.804 79.364,65.485 79.194,65.284 79.000 C 65.082 78.805,64.842 78.644,64.750 78.640 C 64.376 78.626,64.018 78.314,64.107 78.081 C 64.176 77.901,64.084 77.833,63.768 77.833 C 63.434 77.833,63.329 77.746,63.314 77.458 C 63.274 76.675,63.241 76.590,62.917 76.422 C 62.714 76.318,62.569 76.056,62.547 75.755 C 62.527 75.482,62.365 75.145,62.187 75.005 C 61.928 74.801,61.852 74.493,61.804 73.463 C 61.755 72.416,61.683 72.132,61.414 71.935 C 60.873 71.540,60.881 51.567,61.421 51.775 C 61.702 51.882,61.799 51.493,61.824 50.167 C 61.836 49.559,61.924 49.056,62.025 49.021 C 62.139 48.982,62.122 48.901,61.977 48.797 C 61.809 48.677,61.833 48.663,62.070 48.740 C 62.475 48.873,62.671 48.566,62.555 47.982 C 62.466 47.537,62.965 47.020,63.228 47.284 C 63.286 47.342,63.333 47.231,63.333 47.039 C 63.333 46.836,63.473 46.645,63.667 46.583 C 63.850 46.525,64.000 46.338,64.000 46.167 C 64.000 45.974,64.139 45.836,64.368 45.803 C 64.571 45.774,64.777 45.600,64.827 45.417 C 64.878 45.224,65.058 45.083,65.250 45.083 C 65.488 45.083,65.580 44.977,65.570 44.708 C 65.557 44.333,65.850 44.236,66.721 44.327 C 66.903 44.346,67.060 44.222,67.113 44.020 C 67.271 43.416,73.057 43.390,73.657 43.991 M24.715 44.000 C 24.791 44.291,24.942 44.333,25.901 44.333 C 26.962 44.333,27.000 44.348,27.000 44.750 C 27.000 45.083,27.083 45.167,27.417 45.167 C 27.729 45.167,27.833 45.254,27.833 45.518 C 27.833 45.765,27.909 45.840,28.090 45.771 C 28.245 45.711,28.387 45.786,28.451 45.961 C 28.509 46.120,28.768 46.444,29.028 46.681 C 29.287 46.918,29.449 47.162,29.388 47.223 C 29.328 47.284,29.440 47.333,29.639 47.333 C 29.955 47.333,30.000 47.426,30.000 48.072 C 30.000 48.664,30.066 48.832,30.333 48.917 C 30.642 49.015,30.667 49.169,30.667 51.006 C 30.667 52.644,30.626 52.974,30.432 52.899 C 30.183 52.804,30.057 53.103,30.025 53.863 C 30.014 54.109,29.817 54.514,29.586 54.763 C 29.355 55.012,29.167 55.354,29.167 55.524 C 29.167 55.719,29.047 55.833,28.845 55.833 C 28.638 55.833,28.504 55.967,28.470 56.208 C 28.437 56.442,28.317 56.567,28.151 56.540 C 28.005 56.517,27.674 56.693,27.416 56.932 C 27.104 57.221,26.759 57.367,26.388 57.367 C 26.020 57.367,25.750 57.479,25.598 57.696 C 25.332 58.076,25.604 58.064,18.042 58.025 L 13.167 58.000 13.167 50.833 L 13.167 43.667 18.897 43.667 C 24.488 43.667,24.630 43.675,24.715 44.000 M126.382 44.000 C 126.452 44.271,126.609 44.333,127.215 44.333 C 127.817 44.333,127.978 44.397,128.047 44.662 C 128.108 44.895,128.331 45.022,128.817 45.100 C 129.334 45.183,129.500 45.285,129.500 45.521 C 129.500 45.693,129.556 45.824,129.625 45.814 C 130.011 45.753,130.167 45.878,130.167 46.250 C 130.167 46.583,130.250 46.667,130.583 46.667 C 130.947 46.667,131.000 46.740,131.000 47.241 C 131.000 47.616,131.110 47.891,131.317 48.037 C 131.679 48.290,131.708 48.553,131.684 51.458 C 131.668 53.383,131.648 53.500,131.333 53.500 C 131.066 53.500,131.000 53.611,131.000 54.058 C 131.000 54.605,130.508 55.286,130.278 55.056 C 130.217 54.995,130.167 55.144,130.167 55.389 C 130.167 55.762,130.093 55.834,129.708 55.836 C 129.168 55.839,128.932 55.977,128.785 56.374 C 128.719 56.554,128.533 56.649,128.297 56.624 C 128.014 56.594,127.917 56.669,127.916 56.917 C 127.916 57.244,127.791 57.251,121.458 57.294 L 115.000 57.337 115.000 50.502 L 115.000 43.667 120.647 43.667 C 126.154 43.667,126.297 43.675,126.382 44.000 M215.999 54.385 C 216.000 54.977,216.054 55.156,216.208 55.069 C 216.375 54.975,216.375 54.996,216.208 55.176 C 215.927 55.479,215.946 55.667,216.260 55.667 C 216.403 55.667,216.473 55.592,216.417 55.500 C 216.360 55.408,216.390 55.333,216.482 55.333 C 216.575 55.333,216.673 55.802,216.700 56.375 C 216.738 57.170,216.806 57.405,216.987 57.366 C 217.171 57.326,217.181 57.366,217.030 57.548 C 216.837 57.780,216.922 58.000,217.204 58.000 C 217.286 58.000,217.299 57.913,217.234 57.808 C 217.160 57.688,217.188 57.660,217.308 57.734 C 217.421 57.804,217.500 58.294,217.500 58.925 C 217.500 59.817,217.556 60.032,217.833 60.205 C 218.082 60.361,218.167 60.594,218.167 61.123 C 218.167 61.514,218.233 61.833,218.315 61.833 C 218.396 61.833,218.453 61.965,218.440 62.125 C 218.425 62.308,218.525 62.408,218.708 62.394 C 218.944 62.375,219.005 62.518,219.025 63.144 C 219.038 63.569,219.057 64.029,219.066 64.167 C 219.093 64.553,219.346 64.864,219.565 64.780 C 219.700 64.728,219.741 64.882,219.696 65.268 C 219.660 65.578,219.688 65.963,219.758 66.124 C 219.828 66.285,219.872 66.505,219.855 66.612 C 219.838 66.720,219.901 66.856,219.996 66.914 C 220.093 66.974,220.167 66.860,220.167 66.649 C 220.167 65.820,220.397 66.581,220.463 67.627 C 220.540 68.857,220.715 69.333,221.089 69.333 C 221.238 69.333,221.333 69.495,221.333 69.750 L 221.333 70.167 215.542 70.167 L 209.750 70.167 209.805 69.000 C 209.854 67.980,209.901 67.833,210.180 67.833 C 210.356 67.833,210.500 67.802,210.500 67.764 C 210.500 67.725,210.545 67.557,210.599 67.389 C 210.684 67.128,210.669 67.120,210.500 67.333 C 210.331 67.547,210.317 67.538,210.401 67.277 C 210.456 67.109,210.547 66.684,210.603 66.333 C 210.672 65.902,210.806 65.669,211.019 65.613 C 211.286 65.543,211.333 65.369,211.333 64.444 C 211.333 63.443,211.363 63.352,211.708 63.303 C 212.099 63.248,212.116 63.186,212.150 61.708 C 212.164 61.123,212.223 61.000,212.492 61.000 C 212.770 61.000,212.824 60.864,212.867 60.042 C 212.909 59.233,212.975 59.058,213.292 58.919 C 213.596 58.785,213.667 58.621,213.667 58.044 C 213.667 57.573,213.771 57.229,213.978 57.022 C 214.149 56.851,214.343 56.345,214.410 55.897 C 214.478 55.442,214.671 54.952,214.849 54.785 C 215.055 54.591,215.167 54.261,215.167 53.843 C 215.167 53.215,215.178 53.203,215.582 53.391 C 215.940 53.557,215.998 53.694,215.999 54.385 " stroke="none" fill="#ececec" fill-rule="evenodd"></path><path id="path1" d="M357.167 60.500 L 357.167 120.667 359.000 120.667 L 360.833 120.667 360.833 116.250 C 360.833 111.879,360.837 111.833,361.182 111.833 C 361.385 111.833,361.566 111.700,361.614 111.515 C 361.660 111.341,361.841 111.160,362.015 111.114 C 362.200 111.066,362.333 110.885,362.333 110.682 C 362.333 110.439,362.439 110.333,362.682 110.333 C 362.891 110.333,363.066 110.199,363.118 110.000 C 363.166 109.817,363.316 109.667,363.452 109.667 C 363.587 109.667,363.739 109.511,363.788 109.321 C 363.838 109.130,364.056 108.907,364.273 108.825 C 364.489 108.742,364.667 108.569,364.667 108.440 C 364.667 108.311,364.822 108.165,365.012 108.115 C 365.203 108.065,365.399 107.869,365.448 107.679 C 365.500 107.484,365.675 107.333,365.853 107.333 C 366.049 107.333,366.167 107.216,366.167 107.019 C 366.167 106.842,366.317 106.666,366.512 106.615 C 366.703 106.565,366.899 106.369,366.948 106.179 C 367.000 105.984,367.175 105.833,367.353 105.833 C 367.550 105.833,367.667 105.716,367.667 105.518 C 367.667 105.321,367.823 105.164,368.083 105.098 C 368.352 105.031,368.500 104.877,368.500 104.663 C 368.500 104.448,368.612 104.333,368.822 104.333 C 369.029 104.333,369.163 104.199,369.197 103.958 C 369.231 103.717,369.384 103.564,369.625 103.530 C 369.866 103.496,370.000 103.362,370.000 103.155 C 370.000 102.945,370.115 102.833,370.330 102.833 C 370.543 102.833,370.697 102.686,370.765 102.417 C 370.830 102.156,370.987 102.000,371.185 102.000 C 371.385 102.000,371.500 101.883,371.500 101.678 C 371.500 101.471,371.634 101.337,371.875 101.303 C 372.116 101.269,372.269 101.116,372.303 100.875 C 372.337 100.634,372.471 100.500,372.678 100.500 C 372.885 100.500,373.000 100.385,373.000 100.178 C 373.000 99.971,373.134 99.837,373.375 99.803 C 373.616 99.769,373.769 99.616,373.803 99.375 C 373.837 99.134,373.971 99.000,374.178 99.000 C 374.408 99.000,374.500 98.884,374.500 98.595 C 374.500 98.302,374.604 98.175,374.875 98.137 C 375.211 98.089,375.255 97.977,375.299 97.059 C 375.340 96.206,375.403 96.021,375.674 95.950 C 376.173 95.819,376.173 93.000,375.674 93.000 C 375.388 93.000,375.343 92.863,375.299 91.875 C 375.255 90.853,375.216 90.745,374.875 90.697 C 374.570 90.653,374.500 90.538,374.500 90.078 C 374.500 89.682,374.400 89.458,374.167 89.333 C 373.983 89.235,373.833 89.008,373.833 88.827 C 373.833 88.589,373.720 88.500,373.417 88.500 C 373.083 88.500,373.000 88.417,373.000 88.083 C 373.000 87.778,372.911 87.667,372.667 87.667 C 372.409 87.667,372.333 87.556,372.333 87.180 C 372.333 86.477,372.175 86.167,371.816 86.167 C 371.590 86.167,371.500 86.048,371.500 85.750 C 371.500 85.458,371.409 85.333,371.196 85.333 C 370.984 85.333,370.845 85.145,370.735 84.708 C 370.625 84.270,370.492 84.090,370.289 84.106 C 370.076 84.124,370.000 84.003,370.000 83.648 C 370.000 83.287,369.921 83.167,369.685 83.167 C 369.487 83.167,369.330 83.011,369.265 82.750 C 369.199 82.486,369.043 82.333,368.840 82.333 C 368.582 82.333,368.509 82.195,368.468 81.625 C 368.425 81.036,368.353 80.908,368.042 80.863 C 367.794 80.828,367.667 80.696,367.667 80.473 C 367.667 80.281,367.529 80.100,367.349 80.052 C 367.144 79.999,366.992 79.761,366.921 79.383 C 366.850 79.001,366.699 78.767,366.489 78.712 C 366.284 78.658,366.167 78.483,366.167 78.231 C 366.167 77.949,366.073 77.833,365.845 77.833 C 365.638 77.833,365.504 77.699,365.470 77.458 C 365.436 77.217,365.283 77.064,365.042 77.030 C 364.727 76.985,364.667 76.874,364.667 76.333 C 364.667 75.848,364.589 75.664,364.351 75.589 C 364.178 75.534,363.997 75.341,363.950 75.161 C 363.899 74.967,363.722 74.833,363.516 74.833 C 363.257 74.833,363.167 74.728,363.167 74.429 C 363.167 74.207,362.979 73.803,362.750 73.530 C 362.521 73.258,362.333 72.915,362.333 72.768 C 362.333 72.614,362.196 72.500,362.012 72.500 C 361.805 72.500,361.671 72.366,361.637 72.125 C 361.602 71.884,361.449 71.731,361.208 71.697 C 360.973 71.663,360.833 71.528,360.833 71.333 C 360.833 71.139,360.973 71.003,361.208 70.970 C 361.449 70.936,361.602 70.783,361.637 70.542 C 361.669 70.310,361.806 70.167,361.992 70.167 C 362.158 70.167,362.335 70.011,362.385 69.821 C 362.435 69.631,362.631 69.435,362.821 69.385 C 363.016 69.334,363.167 69.158,363.167 68.981 C 363.167 68.808,363.281 68.667,363.421 68.667 C 363.561 68.667,363.747 68.477,363.835 68.246 C 363.923 68.014,364.109 67.781,364.248 67.728 C 364.388 67.674,364.549 67.338,364.606 66.982 C 364.692 66.440,364.774 66.333,365.105 66.333 C 365.389 66.333,365.500 66.240,365.500 66.000 C 365.500 65.778,365.611 65.667,365.833 65.667 C 366.078 65.667,366.167 65.556,366.167 65.250 C 366.167 64.917,366.250 64.833,366.583 64.833 C 366.880 64.833,367.000 64.743,367.000 64.519 C 367.000 64.346,367.149 64.167,367.333 64.118 C 367.528 64.067,367.667 63.891,367.667 63.694 C 367.667 63.471,367.794 63.338,368.042 63.303 C 368.276 63.270,368.436 63.116,368.468 62.892 C 368.496 62.695,368.654 62.499,368.820 62.455 C 369.007 62.406,369.163 62.154,369.232 61.790 C 369.304 61.402,369.453 61.174,369.671 61.117 C 369.862 61.067,370.000 60.890,370.000 60.694 C 370.000 60.471,370.127 60.338,370.375 60.303 C 370.616 60.269,370.769 60.116,370.803 59.875 C 370.837 59.634,370.971 59.500,371.178 59.500 C 371.385 59.500,371.500 59.385,371.500 59.178 C 371.500 58.971,371.634 58.837,371.875 58.803 C 372.116 58.769,372.269 58.616,372.303 58.375 C 372.337 58.134,372.471 58.000,372.678 58.000 C 372.910 58.000,373.000 57.884,373.000 57.583 C 373.000 57.284,373.090 57.167,373.320 57.167 C 373.541 57.167,373.675 57.010,373.752 56.659 C 373.813 56.379,374.007 56.061,374.182 55.952 C 374.357 55.843,374.510 55.565,374.523 55.335 C 374.543 54.967,374.554 54.960,374.615 55.275 C 374.654 55.472,374.828 55.670,375.003 55.716 C 375.279 55.788,375.326 55.987,375.368 57.274 C 375.414 58.661,375.439 58.753,375.792 58.803 C 376.150 58.854,376.167 58.925,376.167 60.430 C 376.167 61.797,376.210 62.041,376.500 62.289 C 376.780 62.528,376.833 62.780,376.833 63.858 C 376.833 65.107,377.043 65.667,377.512 65.667 C 377.597 65.667,377.667 66.004,377.667 66.417 C 377.667 67.047,377.718 67.167,377.988 67.167 C 378.195 67.167,378.329 67.301,378.363 67.542 C 378.398 67.783,378.551 67.936,378.792 67.970 C 379.033 68.004,379.167 68.138,379.167 68.345 C 379.167 68.549,379.282 68.667,379.481 68.667 C 379.658 68.667,379.834 68.817,379.885 69.012 C 379.935 69.203,380.124 69.397,380.306 69.444 C 380.487 69.492,380.673 69.674,380.719 69.849 C 380.784 70.096,380.953 70.167,381.484 70.167 C 382.101 70.167,382.167 70.207,382.167 70.583 C 382.167 70.917,382.250 71.000,382.583 71.000 C 382.889 71.000,383.000 71.089,383.000 71.333 C 383.000 71.556,383.111 71.667,383.333 71.667 C 383.517 71.667,383.667 71.777,383.667 71.911 C 383.667 72.218,384.180 72.500,384.739 72.500 C 385.056 72.500,385.167 72.587,385.167 72.833 C 385.167 73.078,385.278 73.167,385.583 73.167 C 385.917 73.167,386.000 73.250,386.000 73.583 C 386.000 73.917,386.083 74.000,386.417 74.000 C 386.722 74.000,386.833 74.089,386.833 74.333 C 386.833 74.585,386.945 74.667,387.292 74.669 C 387.832 74.672,388.068 74.810,388.215 75.208 C 388.274 75.369,388.475 75.500,388.661 75.500 C 388.888 75.500,389.000 75.609,389.000 75.830 C 389.000 76.040,389.146 76.197,389.401 76.261 C 389.621 76.316,389.839 76.505,389.885 76.681 C 389.950 76.930,390.119 77.000,390.651 77.000 C 391.268 77.000,391.333 77.040,391.333 77.417 C 391.333 77.722,391.422 77.833,391.667 77.833 C 391.889 77.833,392.000 77.944,392.000 78.167 C 392.000 78.450,392.111 78.500,392.738 78.500 C 393.377 78.500,393.484 78.551,393.530 78.875 C 393.626 79.551,397.036 79.508,397.252 78.828 C 397.329 78.585,397.506 78.500,397.931 78.500 C 398.378 78.500,398.548 78.410,398.691 78.097 C 398.791 77.876,399.010 77.659,399.176 77.616 C 399.366 77.566,399.520 77.314,399.591 76.935 C 399.653 76.604,399.770 76.333,399.852 76.333 C 399.933 76.333,400.000 75.283,400.000 74.000 C 400.000 72.556,399.937 71.667,399.833 71.667 C 399.742 71.667,399.667 71.445,399.667 71.173 C 399.667 70.902,399.547 70.583,399.401 70.465 C 399.255 70.347,398.965 70.081,398.757 69.875 C 398.526 69.646,398.175 69.500,397.856 69.500 C 397.410 69.500,397.333 69.439,397.333 69.083 C 397.333 68.750,397.250 68.667,396.917 68.667 C 396.611 68.667,396.500 68.578,396.500 68.333 C 396.500 68.089,396.389 68.000,396.083 68.000 C 395.778 68.000,395.667 67.911,395.667 67.667 C 395.667 67.483,395.587 67.333,395.490 67.333 C 395.393 67.333,395.361 67.427,395.419 67.542 C 395.477 67.656,395.417 67.619,395.286 67.458 C 395.154 67.298,394.886 67.167,394.690 67.167 C 394.446 67.167,394.333 67.063,394.333 66.837 C 394.333 66.623,394.186 66.469,393.917 66.402 C 393.656 66.336,393.500 66.179,393.500 65.982 C 393.500 65.761,393.381 65.667,393.103 65.667 C 392.850 65.667,392.675 65.549,392.621 65.344 C 392.566 65.134,392.333 64.984,391.950 64.912 C 391.572 64.841,391.335 64.689,391.281 64.484 C 391.234 64.304,391.052 64.167,390.861 64.167 C 390.638 64.167,390.505 64.039,390.470 63.793 C 390.441 63.588,390.279 63.394,390.110 63.362 C 389.941 63.329,389.660 63.160,389.485 62.985 C 389.310 62.810,388.942 62.667,388.667 62.667 C 388.244 62.667,388.167 62.602,388.167 62.250 C 388.167 61.953,388.076 61.833,387.853 61.833 C 387.679 61.833,387.500 61.684,387.452 61.500 C 387.404 61.317,387.235 61.167,387.076 61.167 C 386.568 61.167,386.000 60.380,386.000 59.677 C 386.000 59.180,385.908 58.978,385.583 58.765 C 385.194 58.510,385.167 58.402,385.167 57.093 C 385.167 55.551,385.080 55.167,384.732 55.167 C 384.558 55.167,384.500 54.901,384.500 54.104 C 384.500 52.579,384.357 52.000,383.979 52.000 C 383.697 52.000,383.667 51.856,383.667 50.500 C 383.667 49.111,383.642 49.000,383.333 49.000 C 383.039 49.000,383.000 48.888,382.996 48.042 C 382.991 46.860,382.729 45.669,382.421 45.430 C 382.294 45.331,382.166 45.063,382.137 44.833 C 382.100 44.549,381.964 44.400,381.708 44.363 C 381.467 44.329,381.333 44.195,381.333 43.988 C 381.333 43.782,381.218 43.667,381.012 43.667 C 380.805 43.667,380.671 43.533,380.637 43.292 C 380.602 43.051,380.449 42.898,380.208 42.863 C 379.967 42.829,379.833 42.695,379.833 42.488 C 379.833 42.278,379.718 42.167,379.500 42.167 C 379.317 42.167,379.167 42.097,379.167 42.012 C 379.167 41.695,378.627 41.333,378.155 41.333 C 377.778 41.333,377.667 41.257,377.667 41.000 C 377.667 40.756,377.556 40.667,377.250 40.667 C 376.917 40.667,376.833 40.583,376.833 40.250 C 376.833 39.917,376.750 39.833,376.417 39.833 C 376.111 39.833,376.000 39.744,376.000 39.500 C 376.000 39.243,375.889 39.167,375.512 39.167 C 375.190 39.167,374.913 39.025,374.696 38.750 C 374.516 38.521,374.248 38.333,374.101 38.333 C 373.948 38.333,373.833 38.196,373.833 38.014 C 373.833 37.838,373.740 37.657,373.625 37.610 C 373.510 37.564,373.655 37.520,373.947 37.513 C 374.374 37.503,374.487 37.572,374.530 37.875 C 374.578 38.216,374.686 38.255,375.708 38.299 C 376.697 38.343,376.833 38.388,376.833 38.674 C 376.833 39.188,383.484 39.181,383.618 38.667 C 383.695 38.374,383.846 38.333,384.853 38.333 C 385.965 38.333,386.000 38.321,386.000 37.917 C 386.000 37.534,386.061 37.500,386.750 37.500 C 387.389 37.500,387.500 37.451,387.500 37.167 C 387.500 36.944,387.611 36.833,387.833 36.833 C 388.078 36.833,388.167 36.722,388.167 36.417 C 388.167 36.083,388.250 36.000,388.583 36.000 C 388.889 36.000,389.000 35.911,389.000 35.667 C 389.000 35.451,389.111 35.333,389.315 35.333 C 389.513 35.333,389.670 35.177,389.735 34.917 C 389.803 34.648,389.957 34.500,390.170 34.500 C 390.385 34.500,390.500 34.388,390.500 34.178 C 390.500 33.971,390.634 33.837,390.875 33.803 C 391.176 33.760,391.260 33.627,391.302 33.125 C 391.336 32.714,391.464 32.442,391.677 32.328 C 391.923 32.196,392.000 31.977,392.000 31.411 C 392.000 30.728,392.034 30.667,392.417 30.667 L 392.833 30.667 392.833 26.167 L 392.833 21.667 392.417 21.667 C 392.029 21.667,392.000 21.610,392.000 20.847 C 392.000 19.872,391.880 19.500,391.566 19.500 C 391.429 19.500,391.333 19.328,391.333 19.083 C 391.333 18.750,391.250 18.667,390.917 18.667 C 390.581 18.667,390.500 18.584,390.500 18.242 C 390.500 18.009,390.331 17.644,390.125 17.431 C 389.919 17.219,389.667 16.903,389.566 16.731 C 389.465 16.558,389.209 16.391,388.998 16.360 C 388.577 16.298,388.167 15.961,388.167 15.679 C 388.167 15.580,388.017 15.500,387.833 15.500 C 387.611 15.500,387.500 15.389,387.500 15.167 C 387.500 14.883,387.389 14.833,386.750 14.833 C 386.061 14.833,386.000 14.799,386.000 14.417 C 386.000 14.029,385.943 14.000,385.186 14.000 C 384.512 14.000,384.357 13.943,384.285 13.667 C 384.149 13.145,376.167 13.145,376.167 13.667 C 376.167 13.949,376.056 14.000,375.435 14.000 C 374.793 14.000,374.690 14.051,374.598 14.417 C 374.541 14.646,374.411 14.833,374.310 14.833 C 374.186 14.833,374.194 14.751,374.333 14.583 C 374.483 14.403,374.487 14.333,374.349 14.333 C 374.243 14.333,374.113 14.446,374.060 14.583 C 374.006 14.726,373.757 14.833,373.482 14.833 C 373.118 14.833,373.000 14.912,373.000 15.152 C 373.000 15.393,372.841 15.498,372.350 15.581 C 371.904 15.656,371.673 15.792,371.615 16.012 C 371.567 16.196,371.387 16.333,371.194 16.333 C 370.971 16.333,370.838 16.460,370.803 16.708 C 370.768 16.954,370.635 17.083,370.417 17.083 C 370.189 17.083,370.065 17.214,370.025 17.494 C 369.993 17.721,369.825 18.087,369.650 18.309 C 369.476 18.530,369.333 18.846,369.333 19.011 C 369.333 19.194,369.188 19.331,368.958 19.363 C 368.647 19.408,368.575 19.536,368.532 20.117 C 368.496 20.620,368.396 20.844,368.177 20.913 C 367.837 21.021,367.724 21.467,367.679 22.884 C 367.657 23.591,367.562 23.938,367.324 24.176 C 366.834 24.666,366.841 27.487,367.333 27.795 C 367.618 27.972,367.667 28.183,367.667 29.241 C 367.667 30.651,367.883 31.414,368.244 31.276 C 368.426 31.205,368.494 31.368,368.533 31.967 C 368.573 32.592,368.659 32.783,368.958 32.915 C 369.188 33.015,369.333 33.225,369.333 33.456 C 369.333 33.722,369.432 33.833,369.667 33.833 C 369.892 33.833,370.000 33.944,370.000 34.176 C 370.000 34.668,371.401 36.000,371.918 36.000 C 372.248 36.000,372.333 36.084,372.333 36.409 L 372.333 36.818 371.924 36.409 C 371.699 36.184,371.370 36.000,371.194 36.000 C 371.012 36.000,370.834 35.855,370.785 35.667 C 370.734 35.472,370.558 35.333,370.361 35.333 C 370.138 35.333,370.005 35.206,369.970 34.960 C 369.939 34.745,369.776 34.560,369.585 34.523 C 369.403 34.489,369.155 34.319,369.034 34.147 C 368.891 33.943,368.613 33.833,368.241 33.833 C 367.740 33.833,367.667 33.780,367.667 33.417 C 367.667 33.111,367.578 33.000,367.333 33.000 C 367.111 33.000,367.000 32.889,367.000 32.667 C 367.000 32.406,366.889 32.333,366.490 32.333 C 366.178 32.333,366.022 32.266,366.088 32.159 C 366.276 31.856,365.813 31.500,365.230 31.500 C 364.769 31.500,364.667 31.436,364.667 31.151 C 364.667 30.948,364.534 30.767,364.349 30.719 C 364.174 30.673,363.993 30.493,363.948 30.318 C 363.901 30.140,363.719 30.000,363.535 30.000 C 363.347 30.000,363.169 29.859,363.120 29.671 C 363.059 29.438,362.835 29.311,362.350 29.233 C 361.832 29.151,361.667 29.048,361.667 28.812 C 361.667 28.590,361.546 28.500,361.250 28.500 L 360.833 28.500 360.814 14.875 C 360.804 7.381,360.808 1.119,360.825 0.958 C 360.869 0.526,360.172 0.333,358.572 0.333 L 357.167 0.333 357.167 60.500 M361.390 93.611 C 361.811 93.851,361.767 94.391,361.287 94.867 L 360.833 95.318 360.844 94.034 C 360.851 93.130,360.898 92.857,361.000 93.111 C 361.080 93.309,361.255 93.534,361.390 93.611 " stroke="none" fill="#4c9afc" fill-rule="evenodd"></path><path id="path2" d="M39.205 38.865 C 39.241 38.973,39.360 39.092,39.469 39.129 C 39.591 39.169,39.628 39.093,39.566 38.931 C 39.449 38.628,39.105 38.565,39.205 38.865 M13.243 50.833 C 13.243 54.821,13.265 56.452,13.291 54.458 C 13.318 52.465,13.318 49.202,13.291 47.208 C 13.265 45.215,13.243 46.846,13.243 50.833 M42.865 47.177 C 42.905 47.297,43.036 47.429,43.156 47.469 C 43.281 47.510,43.344 47.448,43.302 47.323 C 43.262 47.203,43.131 47.071,43.010 47.031 C 42.885 46.990,42.823 47.052,42.865 47.177 M144.539 49.333 C 144.539 49.654,144.573 49.785,144.615 49.625 C 144.657 49.465,144.657 49.202,144.615 49.042 C 144.573 48.881,144.539 49.012,144.539 49.333 M61.063 59.500 C 61.063 60.554,61.090 60.985,61.123 60.458 C 61.156 59.931,61.156 59.069,61.123 58.542 C 61.090 58.015,61.063 58.446,61.063 59.500 M61.064 64.417 C 61.064 65.517,61.091 65.945,61.124 65.368 C 61.156 64.792,61.156 63.892,61.123 63.368 C 61.090 62.845,61.063 63.317,61.064 64.417 M13.243 70.208 C 13.199 70.323,13.184 74.992,13.208 80.583 L 13.253 90.750 13.293 80.461 L 13.333 70.171 18.458 70.125 L 23.583 70.078 18.453 70.039 C 14.473 70.009,13.305 70.047,13.243 70.208 M266.208 80.125 C 269.669 80.150,275.331 80.150,278.792 80.125 C 282.252 80.100,279.421 80.079,272.500 80.079 C 265.579 80.079,262.748 80.100,266.208 80.125 M130.500 87.054 C 130.500 87.188,130.612 87.341,130.750 87.394 C 130.887 87.446,131.000 87.449,131.000 87.400 C 131.000 87.350,130.887 87.197,130.750 87.060 C 130.533 86.843,130.500 86.842,130.500 87.054 " stroke="none" fill="#c4f0f4" fill-rule="evenodd"></path><path id="path3" d="M39.205 38.865 C 39.241 38.973,39.360 39.092,39.469 39.129 C 39.591 39.169,39.628 39.093,39.566 38.931 C 39.449 38.628,39.105 38.565,39.205 38.865 M13.243 50.833 C 13.243 54.821,13.265 56.452,13.291 54.458 C 13.318 52.465,13.318 49.202,13.291 47.208 C 13.265 45.215,13.243 46.846,13.243 50.833 M42.865 47.177 C 42.905 47.297,43.036 47.429,43.156 47.469 C 43.281 47.510,43.344 47.448,43.302 47.323 C 43.262 47.203,43.131 47.071,43.010 47.031 C 42.885 46.990,42.823 47.052,42.865 47.177 M144.539 49.333 C 144.539 49.654,144.573 49.785,144.615 49.625 C 144.657 49.465,144.657 49.202,144.615 49.042 C 144.573 48.881,144.539 49.012,144.539 49.333 M61.063 59.500 C 61.063 60.554,61.090 60.985,61.123 60.458 C 61.156 59.931,61.156 59.069,61.123 58.542 C 61.090 58.015,61.063 58.446,61.063 59.500 M61.064 64.417 C 61.064 65.517,61.091 65.945,61.124 65.368 C 61.156 64.792,61.156 63.892,61.123 63.368 C 61.090 62.845,61.063 63.317,61.064 64.417 M13.243 70.208 C 13.199 70.323,13.184 74.992,13.208 80.583 L 13.253 90.750 13.293 80.461 L 13.333 70.171 18.458 70.125 L 23.583 70.078 18.453 70.039 C 14.473 70.009,13.305 70.047,13.243 70.208 M266.208 80.125 C 269.669 80.150,275.331 80.150,278.792 80.125 C 282.252 80.100,279.421 80.079,272.500 80.079 C 265.579 80.079,262.748 80.100,266.208 80.125 M130.500 87.054 C 130.500 87.188,130.612 87.341,130.750 87.394 C 130.887 87.446,131.000 87.449,131.000 87.400 C 131.000 87.350,130.887 87.197,130.750 87.060 C 130.533 86.843,130.500 86.842,130.500 87.054 " stroke="none" fill="#c4f0f4" fill-rule="evenodd"></path><path id="path4" d="M39.205 38.865 C 39.241 38.973,39.360 39.092,39.469 39.129 C 39.591 39.169,39.628 39.093,39.566 38.931 C 39.449 38.628,39.105 38.565,39.205 38.865 M13.243 50.833 C 13.243 54.821,13.265 56.452,13.291 54.458 C 13.318 52.465,13.318 49.202,13.291 47.208 C 13.265 45.215,13.243 46.846,13.243 50.833 M42.865 47.177 C 42.905 47.297,43.036 47.429,43.156 47.469 C 43.281 47.510,43.344 47.448,43.302 47.323 C 43.262 47.203,43.131 47.071,43.010 47.031 C 42.885 46.990,42.823 47.052,42.865 47.177 M144.539 49.333 C 144.539 49.654,144.573 49.785,144.615 49.625 C 144.657 49.465,144.657 49.202,144.615 49.042 C 144.573 48.881,144.539 49.012,144.539 49.333 M61.063 59.500 C 61.063 60.554,61.090 60.985,61.123 60.458 C 61.156 59.931,61.156 59.069,61.123 58.542 C 61.090 58.015,61.063 58.446,61.063 59.500 M61.064 64.417 C 61.064 65.517,61.091 65.945,61.124 65.368 C 61.156 64.792,61.156 63.892,61.123 63.368 C 61.090 62.845,61.063 63.317,61.064 64.417 M13.243 70.208 C 13.199 70.323,13.184 74.992,13.208 80.583 L 13.253 90.750 13.293 80.461 L 13.333 70.171 18.458 70.125 L 23.583 70.078 18.453 70.039 C 14.473 70.009,13.305 70.047,13.243 70.208 M266.208 80.125 C 269.669 80.150,275.331 80.150,278.792 80.125 C 282.252 80.100,279.421 80.079,272.500 80.079 C 265.579 80.079,262.748 80.100,266.208 80.125 M130.500 87.054 C 130.500 87.188,130.612 87.341,130.750 87.394 C 130.887 87.446,131.000 87.449,131.000 87.400 C 131.000 87.350,130.887 87.197,130.750 87.060 C 130.533 86.843,130.500 86.842,130.500 87.054 " stroke="none" fill="#c4f0f4" fill-rule="evenodd"></path></g></svg>